<svg width="9" height="9" viewBox="0 0 9 9" fill="none" xmlns="http://www.w3.org/2000/svg">
<path d="M5.09358 8.8783C4.95829 8.8783 4.83991 8.84447 4.73845 8.77683C4.63698 8.70919 4.56088 8.61618 4.51015 8.4978C4.45942 8.37942 4.44251 8.26105 4.45942 8.14267C4.47633 8.02429 4.53552 7.91437 4.63698 7.81291L7.57949 4.92113C7.68095 4.78585 7.73168 4.63365 7.73168 4.46454C7.73168 4.29543 7.66404 4.14323 7.52875 4.00794L4.63698 1.11617C4.50169 0.980884 4.43405 0.828686 4.43405 0.659576C4.43405 0.490467 4.50169 0.338268 4.63698 0.20298C4.77227 0.0676931 4.92447 4.93503e-05 5.09358 4.93503e-05C5.26269 4.93503e-05 5.41488 0.0676931 5.55017 0.20298L8.44194 3.09475C8.81398 3.46679 9 3.92339 9 4.46454C9 5.00569 8.81398 5.46228 8.44194 5.83433L5.55017 8.7261C5.41488 8.86138 5.26269 8.92903 5.09358 8.92903V8.8783ZM0.629087 8.8783C0.4938 8.8783 0.375423 8.84447 0.273957 8.77683C0.172492 8.70919 0.0963924 8.61618 0.0456596 8.4978C-0.00507328 8.37942 -0.0135288 8.26105 0.0202931 8.14267C0.054115 8.02429 0.121759 7.91437 0.223224 7.81291L3.57159 4.46454L0.223224 1.11617C0.0879369 0.980884 0.0202931 0.828686 0.0202931 0.659576C0.0202931 0.490467 0.0794814 0.338268 0.197858 0.20298C0.316235 0.0676931 0.459978 4.93503e-05 0.629087 4.93503e-05C0.798197 4.93503e-05 0.950395 0.0676931 1.08568 0.20298L4.89065 4.00794C5.02593 4.14323 5.09358 4.29543 5.09358 4.46454C5.09358 4.63365 5.02593 4.78585 4.89065 4.92113L1.08568 8.7261C0.950395 8.86138 0.798197 8.92903 0.629087 8.92903V8.8783Z" fill="white"/>
</svg>
