<svg width="40" height="41" viewBox="0 0 40 41" fill="none" xmlns="http://www.w3.org/2000/svg">
<path d="M33.6 8.40005C34.8444 7.15561 35.8222 5.6445 36.5333 3.86672C36.8 3.06672 36.7333 2.31116 36.3333 1.60006C35.9333 0.888943 35.3111 0.4445 34.4667 0.26672C33.6222 0.0889435 32.7556 5.34058e-05 31.8667 5.34058e-05C28.8444 5.34058e-05 26.2667 0.933388 24.1333 2.80006C22.6222 4.13339 21.3778 5.86672 20.4 8.00005C19.8667 5.86672 19.0222 4.13339 17.8667 2.80006C16.4444 1.11116 14.6667 0.26672 12.5333 0.26672C12.2667 0.26672 12.0667 0.35561 11.9333 0.53339C11.8 0.711166 11.7333 0.911167 11.7333 1.13339C11.7333 1.35561 11.8 1.55561 11.9333 1.73339C12.0667 1.91117 12.2667 2.00005 12.5333 2.00005C14.4889 1.91117 16.0889 2.88894 17.3333 4.93339C18.1333 6.17783 18.7111 7.68895 19.0667 9.46672C17.1111 7.77783 14.8 6.93339 12.1333 6.93339C9.91111 6.93339 7.88889 7.48895 6.06667 8.60006C4.24444 9.71117 2.77778 11.2001 1.66667 13.0667C0.555556 14.9334 0 16.9778 0 19.2001C0 22.4001 0.711111 25.4223 2.13333 28.2667C3.46667 30.7556 5.24444 32.9334 7.46667 34.8001C9.42222 36.5778 11.5556 37.9334 13.8667 38.8667C16.1778 39.8001 18.2222 40.2667 20 40.2667C21.7778 40.2667 23.8222 39.8001 26.1333 38.8667C28.4444 37.9334 30.5778 36.5778 32.5333 34.8001C34.7556 32.9334 36.5333 30.7556 37.8667 28.2667C39.2889 25.4223 40 22.4001 40 19.2001C40 16.9778 39.4222 14.8889 38.2667 12.9334C37.1111 10.9778 35.5556 9.46672 33.6 8.40005ZM31.8667 1.60006C32.6667 1.60006 33.4667 1.68894 34.2667 1.86672C34.5333 1.95561 34.7333 2.13339 34.8667 2.40005C35 2.66672 35.0222 2.93339 34.9333 3.20005C33.0667 8.4445 28.5333 10.7556 21.3333 10.1334C21.9556 8.17783 22.8889 6.48895 24.1333 5.06672C26.0889 2.75561 28.6667 1.60006 31.8667 1.60006ZM20 38.6667C18.4889 38.6667 16.7556 38.2223 14.8 37.3334C12.6667 36.4445 10.6667 35.2445 8.8 33.7334C6.66667 31.9556 4.97778 29.9112 3.73333 27.6001C2.4 25.0223 1.73333 22.2223 1.73333 19.2001C1.73333 17.2445 2.2 15.4667 3.13333 13.8667C4.06667 12.2667 5.33333 11.0001 6.93333 10.0667C8.53333 9.13339 10.2667 8.66672 12.1333 8.66672C14 8.66672 15.6444 9.11117 17.0667 10.0001C18.4889 10.8889 19.6 12.1778 20.4 13.8667C21.2 15.5556 21.6 17.4223 21.6 19.4667C21.6889 21.8667 21.2 24.4445 20.1333 27.2001C19.5111 28.8001 18.9333 29.9556 18.4 30.6667C18.3111 30.8445 18.2889 31.0445 18.3333 31.2667C18.3778 31.4889 18.5111 31.6667 18.7333 31.8001C18.9556 31.9334 19.1778 31.9778 19.4 31.9334C19.6222 31.8889 19.7778 31.7334 19.8667 31.4667C20.4889 30.4889 21.0667 29.2445 21.6 27.7334C22.7556 24.8001 23.3333 22.0445 23.3333 19.4667C23.3333 16.5334 22.6222 14.0001 21.2 11.8667C22 11.9556 22.7556 12.0001 23.4667 12.0001C27.0222 12.0001 29.9556 11.2001 32.2667 9.60006C34.1333 10.4889 35.6 11.8001 36.6667 13.5334C37.7333 15.2667 38.2667 17.1556 38.2667 19.2001C38.2667 22.2223 37.6 25.0223 36.2667 27.6001C35.0222 29.9112 33.3333 31.9556 31.2 33.7334C29.3333 35.2445 27.3333 36.4445 25.2 37.3334C23.2444 38.2223 21.5111 38.6667 20 38.6667Z" fill="#5CAF90"/>
</svg>
