<svg width="41" height="40" viewBox="0 0 41 40" fill="none" xmlns="http://www.w3.org/2000/svg">
<path d="M32.5524 21.6H26.9524L28.2857 11.7333C28.5524 10.4889 28.2635 9.33333 27.419 8.26666C26.5746 7.2 25.4857 6.66666 24.1524 6.66666H19.3524L19.619 3.86666C19.7079 3.24444 19.9968 2.71111 20.4857 2.26667C20.9746 1.82222 21.5302 1.6 22.1524 1.6H27.4857C27.7524 1.6 27.9524 1.53333 28.0857 1.4C28.219 1.26667 28.2857 1.08889 28.2857 0.866665C28.2857 0.644444 28.219 0.444443 28.0857 0.266666C27.9524 0.0888863 27.7524 -3.8147e-06 27.4857 -3.8147e-06H22.1524C21.0857 -3.8147e-06 20.1524 0.355553 19.3524 1.06667C18.5524 1.77777 18.1079 2.62222 18.019 3.6L17.619 6.66666H4.15238C2.81905 6.66666 1.75238 7.2 0.952381 8.26666C0.507937 8.71111 0.219048 9.24444 0.0857143 9.86666C-0.0476191 10.4889 -0.0253968 11.1111 0.152381 11.7333L2.68571 33.3333C2.86349 35.2889 3.66349 36.8889 5.08571 38.1333C6.50794 39.3778 8.19683 40 10.1524 40H32.5524C34.5968 40 36.3524 39.2667 37.819 37.8C39.2857 36.3333 40.0191 34.5778 40.0191 32.5333V29.2C40.0191 27.0667 39.2857 25.2667 37.819 23.8C36.3524 22.3333 34.5968 21.6 32.5524 21.6ZM38.419 29.2V30H16.6857V29.2C16.6857 27.6 17.2635 26.2222 18.419 25.0667C19.5746 23.9111 20.9524 23.3333 22.5524 23.3333H32.5524C34.1524 23.3333 35.5079 23.9111 36.619 25.0667C37.7302 26.2222 38.3302 27.6 38.419 29.2ZM31.4857 31.6L29.219 33.2L26.9524 31.6H31.4857ZM24.1524 8.4C24.9524 8.4 25.5968 8.71111 26.0857 9.33333C26.5746 9.95555 26.7302 10.6667 26.5524 11.4667L26.419 13.3333H18.419L19.0857 8.4H24.1524ZM2.28571 9.33333C2.73016 8.71111 3.35238 8.4 4.15238 8.4H17.3524L16.819 13.3333H2.01905L1.75238 11.3333C1.5746 10.6222 1.75238 9.95555 2.28571 9.33333ZM10.1524 38.2667C8.64127 38.2667 7.33016 37.7778 6.21905 36.8C5.10794 35.8222 4.46349 34.6222 4.28571 33.2L2.15238 14.9333H26.1524L25.3524 21.6H22.5524C20.419 21.6 18.619 22.3333 17.1524 23.8C15.6857 25.2667 14.9524 27.0667 14.9524 29.2V32.5333C14.9524 33.6889 15.219 34.7778 15.7524 35.8C16.2857 36.8222 16.9524 37.6444 17.7524 38.2667H10.1524ZM32.5524 38.2667H22.5524C20.9524 38.2667 19.5746 37.7111 18.419 36.6C17.2635 35.4889 16.6857 34.1333 16.6857 32.5333V31.6H23.8857L28.6857 34.8C28.8635 34.8889 29.0413 34.9333 29.219 34.9333C29.3968 34.9333 29.5302 34.8889 29.619 34.8L34.419 31.6H38.419V32.5333C38.419 34.1333 37.8413 35.4889 36.6857 36.6C35.5302 37.7111 34.1524 38.2667 32.5524 38.2667Z" fill="#5CAF90"/>
</svg>
