<svg width="40" height="40" viewBox="0 0 40 40" fill="none" xmlns="http://www.w3.org/2000/svg">
<path d="M23.3333 6.66666C23.3333 6.22222 23.4889 5.82222 23.8 5.46666C24.1111 5.11111 24.5111 4.93333 25 4.93333C25.4889 4.93333 25.8889 5.11111 26.2 5.46666C26.5111 5.82222 26.6667 6.22222 26.6667 6.66666C26.6667 7.11111 26.5111 7.51111 26.2 7.86666C25.8889 8.22222 25.4889 8.4 25 8.4C24.5111 8.4 24.1111 8.22222 23.8 7.86666C23.4889 7.51111 23.3333 7.11111 23.3333 6.66666ZM40 35.8667C40 37.0222 39.6 38 38.8 38.8C38 39.6 37.0222 40 35.8667 40H20C17.3333 40 14.7556 39.4889 12.2667 38.4667C9.77778 37.4444 7.6 35.9556 5.73333 34C3.95556 32.2222 2.57778 30.2 1.6 27.9333C0.622222 25.6667 0.0888889 23.2889 0 20.8V19.6C0.0888889 16.0444 1.06667 12.7778 2.93333 9.8C4.8 6.82222 7.31111 4.44444 10.4667 2.66666C13.6222 0.888885 17.0222 -3.8147e-06 20.6667 -3.8147e-06H39.2C39.3778 -3.8147e-06 39.5556 0.0888863 39.7333 0.266666C39.9111 0.444443 40 0.644444 40 0.866665C40 1.08889 39.9111 1.28889 39.7333 1.46666C39.5556 1.64444 39.3778 1.73333 39.2 1.73333H36.6667C36.4889 3.95555 35.8667 5.95555 34.8 7.73333C33.7333 9.51111 32.2667 10.8889 30.4 11.8667C28.5333 12.8444 26.4444 13.3333 24.1333 13.3333H23.2C21.5111 13.3333 19.9111 13.6444 18.4 14.2667C16.8889 14.8889 15.5111 15.7778 14.2667 16.9333C14.5333 17.6444 14.9333 18.2667 15.4667 18.8C16.3556 19.6 17.6 20 19.2 20C19.3778 20 19.5556 20.0889 19.7333 20.2667C19.9111 20.4444 20 20.6444 20 20.8667C20 21.0889 19.9111 21.2667 19.7333 21.4C19.5556 21.5333 19.3778 21.6 19.2 21.6C17.6 21.6 16.2222 21.2444 15.0667 20.5333C14.1778 20 13.5111 19.2444 13.0667 18.2667C11.7333 19.7778 10.8444 21.4667 10.4 23.3333C10.5778 23.9556 10.9778 24.5778 11.6 25.2C12.6667 26.1778 14.0889 26.6667 15.8667 26.6667C16.0444 26.6667 16.2222 26.7556 16.4 26.9333C16.5778 27.1111 16.6667 27.3111 16.6667 27.5333C16.6667 27.7556 16.5778 27.9556 16.4 28.1333C16.2222 28.3111 16.0444 28.4 15.8667 28.4C13.3778 28.4 11.4222 27.5556 10 25.8667C10 27.4667 10.2889 29 10.8667 30.4667C11.4444 31.9333 12.3111 33.2667 13.4667 34.4667C14.6222 35.6667 16 36.6222 17.6 37.3333C19.2 38.0444 20.8889 38.4 22.6667 38.4H23.2C25.0667 36.9778 26.9333 35.6889 28.8 34.5333C32 32.6667 34.3556 31.7333 35.8667 31.7333C37.0222 31.7333 38 32.1111 38.8 32.8667C39.6 33.6222 40 34.6222 40 35.8667ZM18.4 6.66666C18.4 8.08889 18.8667 9.28889 19.8 10.2667C20.7333 11.2444 21.9556 11.7333 23.4667 11.7333H24.1333C27.1556 11.7333 29.6667 10.8 31.6667 8.93333C33.6667 7.06667 34.7556 4.66666 34.9333 1.73333H23.2C21.7778 1.73333 20.6 2.2 19.6667 3.13333C18.7333 4.06667 18.2667 5.24444 18.2667 6.66666H18.4ZM6 8.4C6.17778 10.5333 6.91111 12.2889 8.2 13.6667C9.48889 15.0444 11.1111 15.7778 13.0667 15.8667C14.9333 14.0889 17.0667 12.8444 19.4667 12.1333C18.5778 11.5111 17.8889 10.7333 17.4 9.8C16.9111 8.86666 16.6667 7.82222 16.6667 6.66666C16.6667 4.71111 17.3778 3.06667 18.8 1.73333C16.2222 2 13.8444 2.71111 11.6667 3.86666C9.48889 5.02222 7.6 6.53333 6 8.4ZM1.73333 20.5333C2 21.1556 2.4 21.6889 2.93333 22.1333C3.91111 22.9333 5.15556 23.3333 6.66667 23.3333C7.28889 23.3333 7.95556 23.2444 8.66667 23.0667C9.2 21.0222 10.1778 19.1111 11.6 17.3333C9.82222 16.9778 8.31111 16.1778 7.06667 14.9333C5.82222 13.6889 4.97778 12.1333 4.53333 10.2667C2.66667 13.1111 1.73333 16.2222 1.73333 19.6V20.5333ZM14.4 37.4667C13.6 36.9333 12.8444 36.3111 12.1333 35.6C10.8889 34.2667 9.93333 32.7556 9.26667 31.0667C8.6 29.3778 8.26667 27.6444 8.26667 25.8667L8.4 24.9333C7.77778 24.9333 7.24444 24.9778 6.8 25.0667C4.84444 24.9778 3.24444 24.4444 2 23.4667C2.71111 27.1111 4.35556 30.2222 6.93333 32.8C9.06667 35.0222 11.5556 36.5778 14.4 37.4667ZM38.4 35.8667C38.4 35.0667 38.1556 34.4444 37.6667 34C37.1778 33.5556 36.5111 33.3333 35.6667 33.3333C34.8222 33.3333 33.3778 33.9111 31.3333 35.0667C29.7333 35.8667 28 36.9333 26.1333 38.2667H35.8667C36.5778 38.2667 37.1556 38.0444 37.6 37.6C38.0444 37.1556 38.3111 36.5778 38.4 35.8667Z" fill="#5CAF90"/>
</svg>
