<svg width="40" height="40" viewBox="0 0 40 40" fill="none" xmlns="http://www.w3.org/2000/svg">
<path d="M40 34.1333C40 35.7333 39.4222 37.1111 38.2667 38.2667C37.1111 39.4222 35.7333 40 34.1333 40H5.86667C4.26667 40 2.88889 39.4222 1.73333 38.2667C0.577778 37.1111 0 35.7333 0 34.1333C0 32.8889 0.377778 31.7556 1.13333 30.7333C1.88889 29.7111 2.84444 29.0222 4 28.6667C4.35556 29.1111 4.75556 29.5556 5.2 30C4.13333 30.1778 3.28889 30.6667 2.66667 31.4667C2.04444 32.2667 1.73333 33.2 1.73333 34.2667C1.73333 35.3333 2.13333 36.2667 2.93333 37.0667C3.73333 37.8667 4.71111 38.2667 5.86667 38.2667H34.1333C35.2889 38.2667 36.2889 37.8667 37.1333 37.0667C37.9778 36.2667 38.4 35.3333 38.4 34.2667C38.4 33.2 38.0667 32.2667 37.4 31.4667C36.7333 30.6667 35.8667 30.1778 34.8 30C35.2444 29.5556 35.6444 29.1111 36 28.6667C37.1556 29.0222 38.1111 29.7111 38.8667 30.7333C39.6222 31.7556 40 32.8889 40 34.1333ZM17.4667 24.9333H19.2V28.2667H20.8V24.9333H22.5333C23.6889 24.9333 24.6667 24.5333 25.4667 23.7333C26.2667 22.9333 26.6667 21.9556 26.6667 20.8C26.6667 19.6444 26.3111 18.6444 25.6 17.8C24.8889 16.9556 23.9556 16.4444 22.8 16.2667L17.4667 15.4667C16.7556 15.2889 16.1778 14.9333 15.7333 14.4C15.2889 13.8667 15.0667 13.2444 15.0667 12.5333C15.0667 11.8222 15.2889 11.2222 15.7333 10.7333C16.1778 10.2444 16.7556 10 17.4667 10H22.5333C23.2444 10 23.8444 10.2444 24.3333 10.7333C24.8222 11.2222 25.0222 11.8222 24.9333 12.5333V13.3333H26.6667V12.5333C26.6667 11.3778 26.2667 10.4 25.4667 9.6C24.6667 8.8 23.6889 8.4 22.5333 8.4H20.8V4.93333H19.2V8.26666H17.4667C16.3111 8.26666 15.3333 8.68889 14.5333 9.53333C13.7333 10.3778 13.3333 11.3778 13.3333 12.5333C13.3333 13.6889 13.6889 14.6889 14.4 15.5333C15.1111 16.3778 16.0444 16.8889 17.2 17.0667L22.5333 17.8667C23.2444 18.0444 23.8222 18.4 24.2667 18.9333C24.7111 19.4667 24.9556 20.0889 25 20.8C25.0444 21.5111 24.8222 22.1111 24.3333 22.6C23.8444 23.0889 23.2444 23.3333 22.5333 23.3333H17.4667C16.7556 23.3333 16.1778 23.0889 15.7333 22.6C15.2889 22.1111 15.0667 21.5111 15.0667 20.8V20H13.3333V20.8C13.3333 21.9556 13.7333 22.9556 14.5333 23.8C15.3333 24.6444 16.3111 25.0667 17.4667 25.0667V24.9333ZM3.33333 16.6667C3.33333 13.6444 4.08889 10.8667 5.6 8.33333C7.11111 5.8 9.13333 3.77777 11.6667 2.26667C14.2 0.755554 16.9778 -3.8147e-06 20 -3.8147e-06C23.0222 -3.8147e-06 25.8 0.755554 28.3333 2.26667C30.8667 3.77777 32.8889 5.8 34.4 8.33333C35.9111 10.8667 36.6667 13.6444 36.6667 16.6667C36.6667 19.6889 35.9111 22.4667 34.4 25C32.8889 27.5333 30.8667 29.5556 28.3333 31.0667C25.8 32.5778 23.0222 33.3333 20 33.3333C16.9778 33.3333 14.2 32.5778 11.6667 31.0667C9.13333 29.5556 7.11111 27.5333 5.6 25C4.08889 22.4667 3.33333 19.6889 3.33333 16.6667ZM5.06667 16.6667C4.97778 19.4222 5.62222 21.9333 7 24.2C8.37778 26.4667 10.2 28.2889 12.4667 29.6667C14.7333 31.0444 17.2444 31.7111 20 31.6667C22.7556 31.6222 25.2667 30.9333 27.5333 29.6C29.8 28.2667 31.6 26.4667 32.9333 24.2C34.2667 21.9333 34.9333 19.4222 34.9333 16.6667C34.9333 13.9111 34.2667 11.4 32.9333 9.13333C31.6 6.86666 29.8 5.04444 27.5333 3.66666C25.2667 2.28889 22.7556 1.6 20 1.6C17.2444 1.6 14.7333 2.28889 12.4667 3.66666C10.2 5.04444 8.4 6.86666 7.06667 9.13333C5.73333 11.4 5.06667 13.9111 5.06667 16.6667Z" fill="#5CAF90"/>
</svg>
