<svg width="40" height="40" viewBox="0 0 40 40" fill="none" xmlns="http://www.w3.org/2000/svg">
<path d="M20 40C18.6667 40 17.4 39.7111 16.2 39.1333C15 38.5556 13.9556 37.7333 13.0667 36.6667C11.7333 36.8444 10.4444 36.7111 9.2 36.2667C7.95556 35.8222 6.84444 35.1111 5.86667 34.1333C4.88889 33.1556 4.17778 32.0444 3.73333 30.8C3.28889 29.5556 3.15556 28.2667 3.33333 26.9333C2.26667 26.0444 1.44444 25 0.866667 23.8C0.288889 22.6 0 21.3333 0 20C0 18.6667 0.288889 17.4 0.866667 16.2C1.44444 15 2.26667 13.9556 3.33333 13.0667C3.15556 11.7333 3.28889 10.4444 3.73333 9.2C4.17778 7.95555 4.88889 6.84444 5.86667 5.86666C6.84444 4.88889 7.95556 4.17778 9.2 3.73333C10.4444 3.28889 11.7333 3.15555 13.0667 3.33333C13.9556 2.26667 15 1.44444 16.2 0.866665C17.4 0.288887 18.6667 -3.8147e-06 20 -3.8147e-06C21.3333 -3.8147e-06 22.6 0.288887 23.8 0.866665C25 1.44444 26.0444 2.26667 26.9333 3.33333C28.2667 3.15555 29.5556 3.28889 30.8 3.73333C32.0444 4.17778 33.1556 4.88889 34.1333 5.86666C35.1111 6.84444 35.8222 7.95555 36.2667 9.2C36.7111 10.4444 36.8444 11.7333 36.6667 13.0667C37.7333 13.9556 38.5556 15 39.1333 16.2C39.7111 17.4 40 18.6667 40 20C40 21.3333 39.7111 22.6 39.1333 23.8C38.5556 25 37.7333 26.0444 36.6667 26.9333C36.8444 28.2667 36.7111 29.5556 36.2667 30.8C35.8222 32.0444 35.1111 33.1556 34.1333 34.1333C33.1556 35.1111 32.0444 35.8222 30.8 36.2667C29.5556 36.7111 28.2667 36.8444 26.9333 36.6667C26.0444 37.7333 25 38.5556 23.8 39.1333C22.6 39.7111 21.3333 40 20 40ZM13.8667 34.8L14.1333 35.2C14.8444 36.1778 15.7111 36.9333 16.7333 37.4667C17.7556 38 18.8444 38.2667 20 38.2667C21.1556 38.2667 22.2444 38 23.2667 37.4667C24.2889 36.9333 25.1556 36.1778 25.8667 35.2L26.1333 34.8L26.6667 34.9333C27.8222 35.1111 28.9556 35.0222 30.0667 34.6667C31.1778 34.3111 32.1556 33.7333 33 32.9333C33.8444 32.1333 34.4222 31.1778 34.7333 30.0667C35.0444 28.9556 35.1111 27.8222 34.9333 26.6667L34.8 26.1333L35.2 25.8667C36.1778 25.1556 36.9333 24.2889 37.4667 23.2667C38 22.2444 38.2667 21.1556 38.2667 20C38.2667 18.8444 38 17.7556 37.4667 16.7333C36.9333 15.7111 36.1778 14.8444 35.2 14.1333L34.8 13.8667L34.9333 13.3333C35.1111 12.1778 35.0444 11.0444 34.7333 9.93333C34.4222 8.82222 33.8444 7.84444 33 7C32.1556 6.15555 31.1778 5.57778 30.0667 5.26667C28.9556 4.95555 27.8222 4.88889 26.6667 5.06667L26.1333 5.2L25.8667 4.8C25.1556 3.82222 24.2889 3.06667 23.2667 2.53333C22.2444 2 21.1556 1.73333 20 1.73333C18.8444 1.73333 17.7556 2 16.7333 2.53333C15.7111 3.06667 14.8444 3.82222 14.1333 4.8L13.8667 5.2L13.3333 5.06667C12.1778 4.88889 11.0444 4.95555 9.93333 5.26667C8.82222 5.57778 7.84444 6.15555 7 7C6.15556 7.84444 5.57778 8.82222 5.26667 9.93333C4.95556 11.0444 4.88889 12.1778 5.06667 13.3333L5.2 13.8667L4.8 14.1333C3.82222 14.8444 3.06667 15.7111 2.53333 16.7333C2 17.7556 1.73333 18.8444 1.73333 20C1.73333 21.1556 2 22.2444 2.53333 23.2667C3.06667 24.2889 3.82222 25.1556 4.8 25.8667L5.2 26.1333L5.06667 26.6667C4.88889 27.8222 4.95556 28.9556 5.26667 30.0667C5.57778 31.1778 6.15556 32.1333 7 32.9333C7.84444 33.7333 8.82222 34.3111 9.93333 34.6667C11.0444 35.0222 12.1778 35.1111 13.3333 34.9333L13.8667 34.8ZM15.0667 13.3333C14.5333 13.3333 14.1111 13.4889 13.8 13.8C13.4889 14.1111 13.3333 14.5111 13.3333 15C13.3333 15.4889 13.4889 15.8889 13.8 16.2C14.1111 16.5111 14.5111 16.6667 15 16.6667C15.4889 16.6667 15.8889 16.5111 16.2 16.2C16.5111 15.8889 16.6667 15.4889 16.6667 15C16.6667 14.5111 16.5111 14.1111 16.2 13.8C15.8889 13.4889 15.5111 13.3333 15.0667 13.3333ZM25.0667 23.3333C24.5333 23.3333 24.1111 23.4889 23.8 23.8C23.4889 24.1111 23.3333 24.5111 23.3333 25C23.3333 25.4889 23.4889 25.8889 23.8 26.2C24.1111 26.5111 24.5111 26.6667 25 26.6667C25.4889 26.6667 25.8889 26.5111 26.2 26.2C26.5111 25.8889 26.6667 25.4889 26.6667 25C26.6667 24.5111 26.5111 24.1111 26.2 23.8C25.8889 23.4889 25.4667 23.3333 24.9333 23.3333H25.0667ZM15.0667 26.6667H17.0667L25.0667 13.3333H23.0667L15.0667 26.6667Z" fill="#5CAF90"/>
</svg>
