<svg width="40" height="37" viewBox="0 0 40 37" fill="none" xmlns="http://www.w3.org/2000/svg">
<path d="M40 18.6667C40 17.8667 39.8667 17.0667 39.6 16.2667L37.3333 9.60005C37.0667 8.71116 36.5778 8.00005 35.8667 7.46671C35.1556 6.93338 34.3556 6.66671 33.4667 6.66671H28.2667V4.26671C28.2667 3.11116 27.8667 2.11116 27.0667 1.26671C26.2667 0.422268 25.2889 4.57764e-05 24.1333 4.57764e-05H4.13333C2.97778 4.57764e-05 2 0.422268 1.2 1.26671C0.4 2.11116 0 3.11116 0 4.26671V31.7334C0 33.1556 0.488889 34.3334 1.46667 35.2667C2.44444 36.2 3.64444 36.6667 5.06667 36.6667C5.86667 36.6667 6.64444 36.4667 7.4 36.0667C8.15556 35.6667 8.75556 35.1556 9.2 34.5334C9.64444 35.1556 10.2222 35.6889 10.9333 36.1334C11.6444 36.5778 12.4444 36.8 13.3333 36.8C14.7556 36.8 15.9556 36.3112 16.9333 35.3334C17.9111 34.3556 18.4 33.1556 18.4 31.7334V30H26.6667V31.7334C26.6667 33.1556 27.1556 34.3334 28.1333 35.2667C29.1111 36.2 30.2889 36.6667 31.6667 36.6667C33.0444 36.6667 34.2222 36.2 35.2 35.2667C36.1778 34.3334 36.6667 33.1556 36.6667 31.7334V30H40V18.6667ZM33.4667 8.40005C34 8.40005 34.4889 8.5556 34.9333 8.86671C35.3778 9.17783 35.6889 9.60005 35.8667 10.1334L38 16.6667H28.4V8.40005H33.4667ZM1.73333 4.26671C1.73333 3.5556 1.95556 2.9556 2.4 2.46671C2.84444 1.97783 3.42222 1.73338 4.13333 1.73338H24.1333C24.8444 1.73338 25.4444 1.97783 25.9333 2.46671C26.4222 2.9556 26.6667 3.5556 26.6667 4.26671V28.4H1.73333V4.26671ZM5.06667 35.0667C4.08889 35.0667 3.28889 34.7334 2.66667 34.0667C2.04444 33.4 1.73333 32.6223 1.73333 31.7334V30H8.4V31.7334C8.4 32.6223 8.06667 33.4 7.4 34.0667C6.73333 34.7334 5.91111 35.0667 4.93333 35.0667H5.06667ZM16.6667 31.7334C16.6667 32.6223 16.3333 33.4 15.6667 34.0667C15 34.7334 14.2222 35.0667 13.3333 35.0667C12.4444 35.0667 11.6667 34.7334 11 34.0667C10.3333 33.4 10 32.6223 10 31.7334V30H16.6667V31.7334ZM35.0667 31.7334C35.0667 32.6223 34.7333 33.4 34.0667 34.0667C33.4 34.7334 32.6 35.0667 31.6667 35.0667C30.7333 35.0667 29.9556 34.7334 29.3333 34.0667C28.7111 33.4 28.3556 32.6223 28.2667 31.7334V30H35.0667V31.7334ZM38.4 28.4H28.4V18.4H38.2667V28.4H38.4Z" fill="#5CAF90"/>
</svg>
