<svg width="40" height="41" viewBox="0 0 40 41" fill="none" xmlns="http://www.w3.org/2000/svg">
<path d="M39.0985 19.9166C38.4752 19.1152 37.6294 18.6255 36.5609 18.4475L38.1636 13.9066C38.5197 12.8381 38.4307 11.7697 37.8965 10.7012C37.3623 9.63277 36.5832 8.92047 35.5593 8.56432C34.5353 8.20818 33.5782 8.2527 32.6878 8.69788L33.3556 4.82476C33.5337 3.75631 33.2888 2.75464 32.621 1.81976C31.9532 0.884863 31.0406 0.306121 29.8831 0.0835285C28.7256 -0.139068 27.6795 0.0835285 26.7446 0.751305C25.8097 1.41909 25.2532 2.33172 25.0751 3.4892L24.6744 5.09187C24.4073 4.11246 23.8286 3.31113 22.9382 2.68787C22.0478 2.06461 21.0684 1.75297 20 1.75297C18.9315 1.75297 17.9521 2.06461 17.0618 2.68787C16.1714 3.31113 15.5481 4.11246 15.192 5.09187L14.9249 3.4892C14.7468 2.33172 14.1903 1.41909 13.2554 0.751305C12.3205 0.0835285 11.2743 -0.139068 10.1169 0.0835285C8.95937 0.306121 8.04674 0.884863 7.37896 1.81976C6.71118 2.75464 6.46633 3.75631 6.6444 4.82476L7.31218 8.69788C6.42181 8.2527 5.4424 8.20818 4.37395 8.56432C3.30551 8.92047 2.52643 9.63277 2.03673 10.7012C1.54702 11.7697 1.48024 12.8381 1.83639 13.9066L3.43906 18.4475C2.37062 18.6255 1.52476 19.1152 0.901502 19.9166C0.100167 20.985 -0.166945 22.1425 0.100167 23.389L2.23706 34.0735C2.59321 35.8542 3.48358 37.3011 4.90818 38.4141C6.33277 39.527 7.89093 40.0835 9.58263 40.0835H30.4174C32.1091 40.0835 33.6672 39.527 35.0918 38.4141C36.5164 37.3011 37.4068 35.8542 37.7629 34.0735L39.8998 23.389C40.1669 22.1425 39.8998 20.985 39.0985 19.9166ZM32.2871 10.9683C32.5542 10.6122 32.9549 10.3451 33.4891 10.167C34.0234 9.98892 34.5131 9.98892 34.9583 10.167C35.6706 10.4341 36.1603 10.857 36.4274 11.4358C36.6945 12.0145 36.739 12.66 36.5609 13.3723L34.8247 18.3139H30.9516L32.2871 10.9683ZM25.0751 12.3039L26.6778 3.75631C26.8559 3.04402 27.212 2.48753 27.7462 2.08687C28.2805 1.6862 28.9037 1.55264 29.616 1.6862C30.3283 1.81976 30.8848 2.1759 31.2855 2.75464C31.6861 3.33339 31.7974 3.93439 31.6194 4.55765L29.2153 18.3139H25.0751V12.3039ZM16.6611 6.69454C16.6611 5.80417 16.995 5.0251 17.6628 4.35732C18.3305 3.68954 19.1096 3.35565 20 3.35565C20.8904 3.35565 21.6694 3.68954 22.3372 4.35732C23.005 5.0251 23.3389 5.80417 23.3389 6.69454V18.3139H16.6611V6.69454ZM10.384 1.75297C11.0963 1.5749 11.7195 1.6862 12.2538 2.08687C12.788 2.48753 13.1441 3.04402 13.3222 3.75631L15.0584 12.3039V18.4475H10.7846L8.38063 4.55765C8.20256 3.93439 8.31385 3.33339 8.71452 2.75464C9.11519 2.1759 9.67167 1.84201 10.384 1.75297ZM3.57262 11.369C3.83973 10.8348 4.32944 10.4341 5.04173 10.167C5.48692 9.98892 5.97663 9.98892 6.51085 10.167C7.04507 10.3451 7.44574 10.6122 7.71285 10.9683L9.04841 18.3139H5.17529L3.43906 13.3723C3.26099 12.66 3.30551 11.9923 3.57262 11.369ZM38.2971 23.1219L36.0267 33.8064C35.7596 35.1419 35.0918 36.2327 34.0234 37.0785C32.9549 37.9244 31.7529 38.3473 30.4174 38.3473H9.58263C8.24708 38.3473 7.04507 37.9244 5.97663 37.0785C4.90818 36.2327 4.2404 35.1419 3.97329 33.8064L1.70284 23.1219C1.52476 22.3206 1.68058 21.6083 2.17028 20.985C2.65999 20.3618 3.30551 20.0501 4.10684 20.0501H35.8931C36.6945 20.0501 37.34 20.3618 37.8297 20.985C38.3194 21.6083 38.4752 22.3206 38.2971 23.1219Z" fill="#5CAF90"/>
</svg>
