<svg width="13" height="13" viewBox="0 0 13 13" fill="none" xmlns="http://www.w3.org/2000/svg">
<path d="M13 4.80469C13 4.91927 12.9323 5.04427 12.7969 5.17969L9.96094 7.94531L10.6328 11.8516C10.638 11.888 10.6406 11.9401 10.6406 12.0078C10.6406 12.1172 10.6133 12.2096 10.5586 12.2852C10.5039 12.3607 10.4245 12.3984 10.3203 12.3984C10.2214 12.3984 10.1172 12.3672 10.0078 12.3047L6.5 10.4609L2.99219 12.3047C2.8776 12.3672 2.77344 12.3984 2.67969 12.3984C2.57031 12.3984 2.48828 12.3607 2.43359 12.2852C2.37891 12.2096 2.35156 12.1172 2.35156 12.0078C2.35156 11.9766 2.35677 11.9245 2.36719 11.8516L3.03906 7.94531L0.195312 5.17969C0.0651042 5.03906 0 4.91406 0 4.80469C0 4.61198 0.145833 4.49219 0.4375 4.44531L4.35938 3.875L6.11719 0.320312C6.21615 0.106771 6.34375 0 6.5 0C6.65625 0 6.78385 0.106771 6.88281 0.320312L8.64062 3.875L12.5625 4.44531C12.8542 4.49219 13 4.61198 13 4.80469Z" fill="#F27D0C"/>
</svg>
