<svg width="246" height="175" viewBox="0 0 246 175" fill="none" xmlns="http://www.w3.org/2000/svg">
<rect width="246" height="170" rx="5" fill="#FFF6EC"/>
<rect width="246" height="170" fill="url(#paint0_linear_5_20)"/>
<g filter="url(#filter0_d_5_20)">
<rect x="15" y="15" width="216" height="140" rx="5" fill="white" shape-rendering="crispEdges"/>
<g clip-path="url(#clip0_5_20)">
<path d="M136.59 48.1333C137.834 46.8889 138.812 45.3778 139.523 43.6C139.79 42.8 139.723 42.0444 139.323 41.3333C138.923 40.6222 138.301 40.1778 137.457 40C136.612 39.8222 135.746 39.7333 134.857 39.7333C131.834 39.7333 129.257 40.6667 127.123 42.5333C125.612 43.8667 124.368 45.6 123.39 47.7333C122.857 45.6 122.012 43.8667 120.857 42.5333C119.434 40.8444 117.657 40 115.523 40C115.257 40 115.057 40.0889 114.923 40.2667C114.79 40.4444 114.723 40.6444 114.723 40.8667C114.723 41.0889 114.79 41.2889 114.923 41.4667C115.057 41.6444 115.257 41.7333 115.523 41.7333C117.479 41.6444 119.079 42.6222 120.323 44.6667C121.123 45.9111 121.701 47.4222 122.057 49.2C120.101 47.5111 117.79 46.6667 115.123 46.6667C112.901 46.6667 110.879 47.2222 109.057 48.3333C107.234 49.4444 105.768 50.9333 104.657 52.8C103.546 54.6667 102.99 56.7111 102.99 58.9333C102.99 62.1333 103.701 65.1556 105.123 68C106.457 70.4889 108.234 72.6667 110.457 74.5333C112.412 76.3111 114.546 77.6667 116.857 78.6C119.168 79.5333 121.212 80 122.99 80C124.768 80 126.812 79.5333 129.123 78.6C131.434 77.6667 133.568 76.3111 135.523 74.5333C137.746 72.6667 139.523 70.4889 140.857 68C142.279 65.1556 142.99 62.1333 142.99 58.9333C142.99 56.7111 142.412 54.6222 141.257 52.6667C140.101 50.7111 138.546 49.2 136.59 48.1333ZM134.857 41.3333C135.657 41.3333 136.457 41.4222 137.257 41.6C137.523 41.6889 137.723 41.8667 137.857 42.1333C137.99 42.4 138.012 42.6667 137.923 42.9333C136.057 48.1778 131.523 50.4889 124.323 49.8667C124.946 47.9111 125.879 46.2222 127.123 44.8C129.079 42.4889 131.657 41.3333 134.857 41.3333ZM122.99 78.4C121.479 78.4 119.746 77.9556 117.79 77.0667C115.657 76.1778 113.657 74.9778 111.79 73.4667C109.657 71.6889 107.968 69.6444 106.723 67.3333C105.39 64.7556 104.723 61.9556 104.723 58.9333C104.723 56.9778 105.19 55.2 106.123 53.6C107.057 52 108.323 50.7333 109.923 49.8C111.523 48.8667 113.257 48.4 115.123 48.4C116.99 48.4 118.634 48.8444 120.057 49.7333C121.479 50.6222 122.59 51.9111 123.39 53.6C124.19 55.2889 124.59 57.1556 124.59 59.2C124.679 61.6 124.19 64.1778 123.123 66.9333C122.501 68.5333 121.923 69.6889 121.39 70.4C121.301 70.5778 121.279 70.7778 121.323 71C121.368 71.2222 121.501 71.4 121.723 71.5333C121.946 71.6667 122.168 71.7111 122.39 71.6667C122.612 71.6222 122.768 71.4667 122.857 71.2C123.479 70.2222 124.057 68.9778 124.59 67.4667C125.746 64.5333 126.323 61.7778 126.323 59.2C126.323 56.2667 125.612 53.7333 124.19 51.6C124.99 51.6889 125.746 51.7333 126.457 51.7333C130.012 51.7333 132.946 50.9333 135.257 49.3333C137.123 50.2222 138.59 51.5333 139.657 53.2667C140.723 55 141.257 56.8889 141.257 58.9333C141.257 61.9556 140.59 64.7556 139.257 67.3333C138.012 69.6444 136.323 71.6889 134.19 73.4667C132.323 74.9778 130.323 76.1778 128.19 77.0667C126.234 77.9556 124.501 78.4 122.99 78.4Z" fill="#5CAF90"/>
</g>
<path d="M102.785 107V96.2H109.287V98.0075H104.592V100.7H108.387V102.5H104.592V107H102.785ZM110.796 107V98.9H112.394V100.872L112.199 100.617C112.299 100.347 112.431 100.102 112.596 99.8825C112.766 99.6575 112.969 99.4725 113.204 99.3275C113.404 99.1925 113.624 99.0875 113.864 99.0125C114.109 98.9325 114.359 98.885 114.614 98.87C114.869 98.85 115.116 98.86 115.356 98.9V100.587C115.116 100.517 114.839 100.495 114.524 100.52C114.214 100.545 113.934 100.632 113.684 100.782C113.434 100.917 113.229 101.09 113.069 101.3C112.914 101.51 112.799 101.75 112.724 102.02C112.649 102.285 112.611 102.572 112.611 102.882V107H110.796ZM119.985 107.233C119.385 107.233 118.89 107.133 118.5 106.932C118.11 106.732 117.8 106.477 117.57 106.167C117.34 105.857 117.17 105.527 117.06 105.177C116.95 104.827 116.877 104.497 116.842 104.187C116.812 103.872 116.797 103.617 116.797 103.422V98.9H118.627V102.8C118.627 103.05 118.645 103.332 118.68 103.647C118.715 103.957 118.795 104.257 118.92 104.547C119.05 104.832 119.24 105.067 119.49 105.252C119.745 105.437 120.087 105.53 120.517 105.53C120.747 105.53 120.975 105.492 121.2 105.417C121.425 105.342 121.627 105.215 121.807 105.035C121.992 104.85 122.14 104.597 122.25 104.277C122.36 103.957 122.415 103.552 122.415 103.062L123.487 103.52C123.487 104.21 123.352 104.835 123.082 105.395C122.817 105.955 122.425 106.402 121.905 106.737C121.385 107.068 120.745 107.233 119.985 107.233ZM122.632 107V104.487H122.415V98.9H124.23V107H122.632ZM126.647 97.67V96.0125H128.454V97.67H126.647ZM126.647 107V98.9H128.454V107H126.647ZM135.609 107C135.074 107.1 134.549 107.143 134.034 107.128C133.524 107.118 133.066 107.025 132.661 106.85C132.256 106.67 131.949 106.387 131.739 106.002C131.554 105.652 131.456 105.295 131.446 104.93C131.436 104.565 131.431 104.152 131.431 103.692V96.65H133.231V103.587C133.231 103.912 133.234 104.197 133.239 104.442C133.249 104.687 133.301 104.887 133.396 105.042C133.576 105.342 133.864 105.51 134.259 105.545C134.654 105.58 135.104 105.56 135.609 105.485V107ZM129.961 100.317V98.9H135.609V100.317H129.961ZM140.638 107.225C139.638 107.225 138.825 107 138.2 106.55C137.575 106.1 137.195 105.467 137.06 104.652L138.905 104.367C139 104.767 139.21 105.082 139.535 105.312C139.86 105.542 140.27 105.657 140.765 105.657C141.2 105.657 141.535 105.572 141.77 105.402C142.01 105.227 142.13 104.99 142.13 104.69C142.13 104.505 142.085 104.357 141.995 104.247C141.91 104.132 141.72 104.022 141.425 103.917C141.13 103.812 140.678 103.68 140.068 103.52C139.388 103.34 138.848 103.147 138.448 102.942C138.048 102.732 137.76 102.485 137.585 102.2C137.41 101.915 137.323 101.57 137.323 101.165C137.323 100.66 137.455 100.22 137.72 99.845C137.985 99.47 138.355 99.1825 138.83 98.9825C139.305 98.7775 139.865 98.675 140.51 98.675C141.14 98.675 141.698 98.7725 142.183 98.9675C142.673 99.1625 143.068 99.44 143.368 99.8C143.668 100.16 143.853 100.582 143.923 101.067L142.078 101.397C142.033 101.052 141.875 100.78 141.605 100.58C141.34 100.38 140.985 100.267 140.54 100.242C140.115 100.217 139.773 100.282 139.513 100.437C139.253 100.587 139.123 100.8 139.123 101.075C139.123 101.23 139.175 101.362 139.28 101.472C139.385 101.582 139.595 101.692 139.91 101.802C140.23 101.912 140.705 102.047 141.335 102.207C141.98 102.372 142.495 102.562 142.88 102.777C143.27 102.987 143.55 103.24 143.72 103.535C143.895 103.83 143.983 104.187 143.983 104.607C143.983 105.422 143.685 106.062 143.09 106.527C142.5 106.993 141.683 107.225 140.638 107.225Z" fill="#4B5966"/>
<path d="M91.5549 123.058C91.6155 122.269 91.9189 121.65 92.4649 121.199C93.0195 120.74 93.7345 120.51 94.6099 120.51C95.1905 120.51 95.6889 120.614 96.1049 120.822C96.5209 121.03 96.8329 121.316 97.0409 121.68C97.2575 122.035 97.3659 122.438 97.3659 122.889C97.3659 123.435 97.2055 123.907 96.8849 124.306C96.5642 124.705 96.1092 124.952 95.5199 125.047V125.112C96.1352 125.233 96.6249 125.502 96.9889 125.918C97.3529 126.325 97.5349 126.863 97.5349 127.53C97.5349 128.275 97.2835 128.886 96.7809 129.363C96.2869 129.831 95.5675 130.065 94.6229 130.065C93.7215 130.065 92.9805 129.831 92.3999 129.363C91.8192 128.886 91.4855 128.215 91.3989 127.348H92.2829C92.3609 127.929 92.6035 128.401 93.0109 128.765C93.4182 129.12 93.9555 129.298 94.6229 129.298C95.2815 129.298 95.7842 129.125 96.1309 128.778C96.4862 128.431 96.6639 127.989 96.6639 127.452C96.6639 126.135 95.7149 125.476 93.8169 125.476H93.5309V124.709H93.8299C95.5979 124.709 96.4819 124.133 96.4819 122.98C96.4819 122.477 96.3172 122.074 95.9879 121.771C95.6585 121.459 95.1905 121.303 94.5839 121.303C93.9945 121.303 93.5049 121.459 93.1149 121.771C92.7335 122.074 92.5082 122.503 92.4389 123.058H91.5549ZM99.3364 129.285C100.931 128.089 102.162 127.019 103.028 126.074C103.904 125.121 104.341 124.189 104.341 123.279C104.341 122.681 104.19 122.204 103.886 121.849C103.592 121.485 103.106 121.303 102.43 121.303C101.772 121.303 101.26 121.511 100.896 121.927C100.541 122.334 100.342 122.88 100.298 123.565H99.4144C99.4664 122.603 99.761 121.858 100.298 121.329C100.844 120.792 101.555 120.523 102.43 120.523C103.271 120.523 103.951 120.761 104.471 121.238C104.991 121.706 105.251 122.373 105.251 123.24C105.251 124.289 104.814 125.307 103.938 126.295C103.072 127.274 102.001 128.232 100.727 129.168H105.537V129.935H99.3364V129.285ZM107.278 125.255C107.278 123.764 107.507 122.607 107.967 121.784C108.426 120.961 109.249 120.549 110.437 120.549C111.624 120.549 112.447 120.961 112.907 121.784C113.366 122.607 113.596 123.764 113.596 125.255C113.596 126.772 113.366 127.946 112.907 128.778C112.447 129.61 111.624 130.026 110.437 130.026C109.241 130.026 108.413 129.61 107.954 128.778C107.503 127.946 107.278 126.772 107.278 125.255ZM112.699 125.255C112.699 124.449 112.642 123.769 112.53 123.214C112.417 122.659 112.196 122.213 111.867 121.875C111.537 121.537 111.061 121.368 110.437 121.368C109.813 121.368 109.336 121.537 109.007 121.875C108.677 122.213 108.456 122.659 108.344 123.214C108.231 123.769 108.175 124.449 108.175 125.255C108.175 126.087 108.231 126.785 108.344 127.348C108.456 127.903 108.677 128.349 109.007 128.687C109.336 129.025 109.813 129.194 110.437 129.194C111.061 129.194 111.537 129.025 111.867 128.687C112.196 128.349 112.417 127.903 112.53 127.348C112.642 126.785 112.699 126.087 112.699 125.255ZM120.601 120.913V130H119.691V120.913H120.601ZM124.165 123.669V128.076C124.165 128.509 124.247 128.808 124.412 128.973C124.576 129.138 124.867 129.22 125.283 129.22H126.115V130H125.14C124.498 130 124.022 129.853 123.71 129.558C123.398 129.255 123.242 128.761 123.242 128.076V123.669H122.254V122.902H123.242V121.121H124.165V122.902H126.115V123.669H124.165ZM134.357 126.087C134.357 126.399 134.349 126.637 134.331 126.802H128.442C128.468 127.339 128.598 127.799 128.832 128.18C129.066 128.561 129.374 128.852 129.755 129.051C130.137 129.242 130.553 129.337 131.003 129.337C131.593 129.337 132.087 129.194 132.485 128.908C132.893 128.622 133.161 128.236 133.291 127.751H134.253C134.08 128.444 133.707 129.012 133.135 129.454C132.572 129.887 131.861 130.104 131.003 130.104C130.336 130.104 129.738 129.957 129.209 129.662C128.681 129.359 128.265 128.934 127.961 128.388C127.667 127.833 127.519 127.188 127.519 126.451C127.519 125.714 127.667 125.069 127.961 124.514C128.256 123.959 128.668 123.535 129.196 123.24C129.725 122.945 130.327 122.798 131.003 122.798C131.679 122.798 132.269 122.945 132.771 123.24C133.283 123.535 133.673 123.933 133.941 124.436C134.219 124.93 134.357 125.48 134.357 126.087ZM133.434 126.061C133.443 125.532 133.335 125.082 133.109 124.709C132.893 124.336 132.594 124.055 132.212 123.864C131.831 123.673 131.415 123.578 130.964 123.578C130.288 123.578 129.712 123.795 129.235 124.228C128.759 124.661 128.494 125.272 128.442 126.061H133.434ZM144.792 122.772C145.624 122.772 146.3 123.036 146.82 123.565C147.349 124.085 147.613 124.843 147.613 125.84V130H146.716V125.944C146.716 125.173 146.53 124.583 146.157 124.176C145.785 123.769 145.278 123.565 144.636 123.565C143.969 123.565 143.436 123.786 143.037 124.228C142.639 124.67 142.439 125.311 142.439 126.152V130H141.542V125.944C141.542 125.173 141.356 124.583 140.983 124.176C140.611 123.769 140.099 123.565 139.449 123.565C138.782 123.565 138.249 123.786 137.85 124.228C137.452 124.67 137.252 125.311 137.252 126.152V130H136.342V122.902H137.252V124.124C137.478 123.682 137.798 123.348 138.214 123.123C138.63 122.889 139.094 122.772 139.605 122.772C140.221 122.772 140.758 122.919 141.217 123.214C141.685 123.509 142.023 123.942 142.231 124.514C142.422 123.951 142.747 123.522 143.206 123.227C143.674 122.924 144.203 122.772 144.792 122.772ZM152.398 130.104C151.584 130.104 150.916 129.918 150.396 129.545C149.885 129.164 149.599 128.648 149.538 127.998H150.474C150.518 128.397 150.704 128.722 151.033 128.973C151.371 129.216 151.822 129.337 152.385 129.337C152.879 129.337 153.265 129.22 153.542 128.986C153.828 128.752 153.971 128.462 153.971 128.115C153.971 127.872 153.893 127.673 153.737 127.517C153.581 127.361 153.382 127.24 153.139 127.153C152.905 127.058 152.585 126.958 152.177 126.854C151.649 126.715 151.22 126.577 150.89 126.438C150.561 126.299 150.279 126.096 150.045 125.827C149.82 125.55 149.707 125.181 149.707 124.722C149.707 124.375 149.811 124.055 150.019 123.76C150.227 123.465 150.522 123.231 150.903 123.058C151.285 122.885 151.718 122.798 152.203 122.798C152.966 122.798 153.581 122.993 154.049 123.383C154.517 123.764 154.769 124.293 154.803 124.969H153.893C153.867 124.553 153.703 124.219 153.399 123.968C153.105 123.708 152.697 123.578 152.177 123.578C151.718 123.578 151.345 123.686 151.059 123.903C150.773 124.12 150.63 124.388 150.63 124.709C150.63 124.986 150.713 125.216 150.877 125.398C151.051 125.571 151.263 125.71 151.514 125.814C151.766 125.909 152.104 126.018 152.528 126.139C153.04 126.278 153.447 126.412 153.75 126.542C154.054 126.672 154.314 126.863 154.53 127.114C154.747 127.365 154.86 127.699 154.868 128.115C154.868 128.496 154.764 128.839 154.556 129.142C154.348 129.437 154.058 129.671 153.685 129.844C153.313 130.017 152.884 130.104 152.398 130.104Z" fill="#777777"/>
<path d="M195.14 15H226C228.761 15 231 17.2386 231 20V33H200.14C197.379 33 195.14 30.7614 195.14 28V15Z" fill="#5CAF90"/>
<path d="M200.8 21.556C200.84 20.756 201.12 20.14 201.64 19.708C202.168 19.268 202.86 19.048 203.716 19.048C204.3 19.048 204.8 19.152 205.216 19.36C205.632 19.56 205.944 19.836 206.152 20.188C206.368 20.532 206.476 20.924 206.476 21.364C206.476 21.868 206.344 22.296 206.08 22.648C205.824 22.992 205.516 23.224 205.156 23.344V23.392C205.62 23.536 205.98 23.792 206.236 24.16C206.5 24.528 206.632 25 206.632 25.576C206.632 26.056 206.52 26.484 206.296 26.86C206.08 27.236 205.756 27.532 205.324 27.748C204.9 27.956 204.388 28.06 203.788 28.06C202.884 28.06 202.148 27.832 201.58 27.376C201.012 26.92 200.712 26.248 200.68 25.36H202.312C202.328 25.752 202.46 26.068 202.708 26.308C202.964 26.54 203.312 26.656 203.752 26.656C204.16 26.656 204.472 26.544 204.688 26.32C204.912 26.088 205.024 25.792 205.024 25.432C205.024 24.952 204.872 24.608 204.568 24.4C204.264 24.192 203.792 24.088 203.152 24.088H202.804V22.708H203.152C204.288 22.708 204.856 22.328 204.856 21.568C204.856 21.224 204.752 20.956 204.544 20.764C204.344 20.572 204.052 20.476 203.668 20.476C203.292 20.476 203 20.58 202.792 20.788C202.592 20.988 202.476 21.244 202.444 21.556H200.8ZM208.28 23.512C208.28 22.128 208.528 21.044 209.024 20.26C209.528 19.476 210.36 19.084 211.52 19.084C212.68 19.084 213.508 19.476 214.004 20.26C214.508 21.044 214.76 22.128 214.76 23.512C214.76 24.904 214.508 25.996 214.004 26.788C213.508 27.58 212.68 27.976 211.52 27.976C210.36 27.976 209.528 27.58 209.024 26.788C208.528 25.996 208.28 24.904 208.28 23.512ZM213.104 23.512C213.104 22.92 213.064 22.424 212.984 22.024C212.912 21.616 212.76 21.284 212.528 21.028C212.304 20.772 211.968 20.644 211.52 20.644C211.072 20.644 210.732 20.772 210.5 21.028C210.276 21.284 210.124 21.616 210.044 22.024C209.972 22.424 209.936 22.92 209.936 23.512C209.936 24.12 209.972 24.632 210.044 25.048C210.116 25.456 210.268 25.788 210.5 26.044C210.732 26.292 211.072 26.416 211.52 26.416C211.968 26.416 212.308 26.292 212.54 26.044C212.772 25.788 212.924 25.456 212.996 25.048C213.068 24.632 213.104 24.12 213.104 23.512ZM216.165 21.4C216.165 20.792 216.341 20.316 216.693 19.972C217.053 19.628 217.513 19.456 218.073 19.456C218.633 19.456 219.089 19.628 219.441 19.972C219.801 20.316 219.981 20.792 219.981 21.4C219.981 22.016 219.801 22.496 219.441 22.84C219.089 23.184 218.633 23.356 218.073 23.356C217.513 23.356 217.053 23.184 216.693 22.84C216.341 22.496 216.165 22.016 216.165 21.4ZM223.869 19.6L219.153 28H217.521L222.225 19.6H223.869ZM218.061 20.464C217.621 20.464 217.401 20.776 217.401 21.4C217.401 22.032 217.621 22.348 218.061 22.348C218.277 22.348 218.445 22.272 218.565 22.12C218.685 21.96 218.745 21.72 218.745 21.4C218.745 20.776 218.517 20.464 218.061 20.464ZM221.433 26.188C221.433 25.572 221.609 25.096 221.961 24.76C222.321 24.416 222.781 24.244 223.341 24.244C223.901 24.244 224.353 24.416 224.697 24.76C225.049 25.096 225.225 25.572 225.225 26.188C225.225 26.804 225.049 27.284 224.697 27.628C224.353 27.972 223.901 28.144 223.341 28.144C222.773 28.144 222.313 27.972 221.961 27.628C221.609 27.284 221.433 26.804 221.433 26.188ZM223.329 25.252C222.873 25.252 222.645 25.564 222.645 26.188C222.645 26.82 222.873 27.136 223.329 27.136C223.777 27.136 224.001 26.82 224.001 26.188C224.001 25.564 223.777 25.252 223.329 25.252Z" fill="white"/>
</g>
<defs>
<filter id="filter0_d_5_20" x="0" y="5" width="246" height="170" filterUnits="userSpaceOnUse" color-interpolation-filters="sRGB">
<feFlood flood-opacity="0" result="BackgroundImageFix"/>
<feColorMatrix in="SourceAlpha" type="matrix" values="0 0 0 0 0 0 0 0 0 0 0 0 0 0 0 0 0 0 127 0" result="hardAlpha"/>
<feOffset dy="5"/>
<feGaussianBlur stdDeviation="7.5"/>
<feComposite in2="hardAlpha" operator="out"/>
<feColorMatrix type="matrix" values="0 0 0 0 0.345098 0 0 0 0 0.431373 0 0 0 0 0.490196 0 0 0 0.1 0"/>
<feBlend mode="normal" in2="BackgroundImageFix" result="effect1_dropShadow_5_20"/>
<feBlend mode="normal" in="SourceGraphic" in2="effect1_dropShadow_5_20" result="shape"/>
</filter>
<linearGradient id="paint0_linear_5_20" x1="123" y1="170" x2="123" y2="0" gradientUnits="userSpaceOnUse">
<stop stop-color="white"/>
<stop offset="0.5" stop-color="white"/>
<stop offset="1" stop-opacity="0"/>
</linearGradient>
<clipPath id="clip0_5_20">
<rect width="40.02" height="40" fill="white" transform="matrix(1 0 0 -1 102.98 80)"/>
</clipPath>
</defs>
</svg>
