<svg width="246" height="175" viewBox="0 0 246 175" fill="none" xmlns="http://www.w3.org/2000/svg">
<rect width="246" height="170" rx="5" fill="#E2FDE2"/>
<rect width="246" height="170" fill="url(#paint0_linear_5_30)"/>
<g filter="url(#filter0_d_5_30)">
<rect x="15" y="15" width="216" height="140" rx="5" fill="white" shape-rendering="crispEdges"/>
<g clip-path="url(#clip0_5_30)">
<path d="M112.59 80C109.657 80 107.301 79.1556 105.523 77.4667C104.19 76.1333 103.368 74.4 103.057 72.2667C102.746 70.1333 102.968 67.7778 103.723 65.2C104.479 62.6222 105.679 60.0667 107.323 57.5333C108.968 55 110.946 52.5778 113.257 50.2667C115.568 47.9556 117.99 45.9778 120.523 44.3333C123.057 42.6889 125.612 41.4889 128.19 40.7333C130.768 39.9778 133.123 39.7556 135.257 40.0667C137.39 40.3778 139.123 41.2 140.457 42.5333C141.79 43.8667 142.612 45.6 142.923 47.7333C143.234 49.8667 143.012 52.2222 142.257 54.8C141.501 57.3778 140.301 59.9333 138.657 62.4667C137.012 65 135.034 67.4222 132.723 69.7333C130.412 72.0444 127.99 74.0222 125.457 75.6667C122.923 77.3111 120.368 78.4889 117.79 79.2C115.923 79.7333 114.19 80 112.59 80ZM133.39 41.6C131.968 41.6 130.368 41.8667 128.59 42.4C126.19 43.1111 123.768 44.2444 121.323 45.8C118.879 47.3556 116.568 49.2222 114.39 51.4C112.212 53.5778 110.346 55.8889 108.79 58.3333C107.234 60.7778 106.101 63.1778 105.39 65.5333C104.679 67.8889 104.457 69.9778 104.723 71.8C104.99 73.6222 105.679 75.0889 106.79 76.2C107.901 77.3111 109.368 78 111.19 78.2667C113.012 78.5333 115.101 78.3111 117.457 77.6C119.812 76.8889 122.212 75.7556 124.657 74.2C127.101 72.6444 129.412 70.7778 131.59 68.6C133.768 66.4222 135.634 64.1111 137.19 61.6667C138.746 59.2222 139.879 56.8222 140.59 54.4667C141.301 52.1111 141.523 50.0222 141.257 48.2C140.99 46.3778 140.323 44.8889 139.257 43.7333C137.834 42.3111 135.879 41.6 133.39 41.6ZM128.057 64.1333C128.057 61.3778 127.212 59.1556 125.523 57.4667C123.834 55.7778 121.612 54.9333 118.857 54.9333C118.59 54.9333 118.39 55.0222 118.257 55.2C118.123 55.3778 118.034 55.5778 117.99 55.8C117.946 56.0222 118.012 56.2222 118.19 56.4C118.368 56.5778 118.59 56.6667 118.857 56.6667C121.079 56.6667 122.879 57.3556 124.257 58.7333C125.634 60.1111 126.323 61.9111 126.323 64.1333C126.323 64.4 126.412 64.6 126.59 64.7333C126.768 64.8667 126.968 64.9556 127.19 65C127.412 65.0444 127.612 64.9778 127.79 64.8C127.968 64.6222 128.057 64.4 128.057 64.1333ZM134.723 57.4667C134.723 54.7111 133.879 52.4889 132.19 50.8C130.501 49.1111 128.279 48.2667 125.523 48.2667C125.257 48.2667 125.057 48.3556 124.923 48.5333C124.79 48.7111 124.723 48.9111 124.723 49.1333C124.723 49.3556 124.79 49.5556 124.923 49.7333C125.057 49.9111 125.257 50 125.523 50C127.746 50 129.546 50.6889 130.923 52.0667C132.301 53.4444 132.99 55.2444 132.99 57.4667C132.99 57.7333 133.079 57.9333 133.257 58.0667C133.434 58.2 133.634 58.2667 133.857 58.2667C134.079 58.2667 134.279 58.2 134.457 58.0667C134.634 57.9333 134.723 57.7333 134.723 57.4667ZM121.39 70.8C121.39 68.0444 120.546 65.8222 118.857 64.1333C117.168 62.4444 114.946 61.6 112.19 61.6C111.923 61.6889 111.723 61.8 111.59 61.9333C111.457 62.0667 111.368 62.2444 111.323 62.4667C111.279 62.6889 111.346 62.8889 111.523 63.0667C111.701 63.2444 111.923 63.3333 112.19 63.3333C114.412 63.3333 116.212 64.0222 117.59 65.4C118.968 66.7778 119.657 68.5778 119.657 70.8C119.657 71.0667 119.746 71.2667 119.923 71.4C120.101 71.5333 120.301 71.6222 120.523 71.6667C120.746 71.7111 120.923 71.6444 121.057 71.4667C121.19 71.2889 121.301 71.0667 121.39 70.8Z" fill="#5CAF90"/>
</g>
<path d="M99.2334 107V96.2H103.516C104.246 96.2 104.843 96.3475 105.308 96.6425C105.778 96.9325 106.126 97.305 106.351 97.76C106.581 98.215 106.696 98.685 106.696 99.17C106.696 99.765 106.553 100.27 106.268 100.685C105.988 101.1 105.606 101.38 105.121 101.525V101.15C105.801 101.305 106.316 101.627 106.666 102.117C107.021 102.607 107.198 103.165 107.198 103.79C107.198 104.43 107.076 104.99 106.831 105.47C106.586 105.95 106.221 106.325 105.736 106.595C105.256 106.865 104.661 107 103.951 107H99.2334ZM101.063 105.297H103.726C104.041 105.297 104.323 105.235 104.573 105.11C104.823 104.98 105.018 104.8 105.158 104.57C105.303 104.335 105.376 104.057 105.376 103.737C105.376 103.447 105.313 103.187 105.188 102.957C105.063 102.727 104.881 102.545 104.641 102.41C104.401 102.27 104.113 102.2 103.778 102.2H101.063V105.297ZM101.063 100.512H103.493C103.753 100.512 103.986 100.462 104.191 100.362C104.396 100.262 104.558 100.115 104.678 99.92C104.798 99.725 104.858 99.485 104.858 99.2C104.858 98.825 104.738 98.5125 104.498 98.2625C104.258 98.0125 103.923 97.8875 103.493 97.8875H101.063V100.512ZM111.121 107.225C110.536 107.225 110.041 107.115 109.636 106.895C109.231 106.67 108.924 106.372 108.714 106.002C108.509 105.632 108.406 105.225 108.406 104.78C108.406 104.39 108.471 104.04 108.601 103.73C108.731 103.415 108.931 103.145 109.201 102.92C109.471 102.69 109.821 102.502 110.251 102.357C110.576 102.252 110.956 102.157 111.391 102.072C111.831 101.987 112.306 101.91 112.816 101.84C113.331 101.765 113.869 101.685 114.429 101.6L113.784 101.967C113.789 101.407 113.664 100.995 113.409 100.73C113.154 100.465 112.724 100.332 112.119 100.332C111.754 100.332 111.401 100.417 111.061 100.587C110.721 100.757 110.484 101.05 110.349 101.465L108.699 100.947C108.899 100.262 109.279 99.7125 109.839 99.2975C110.404 98.8825 111.164 98.675 112.119 98.675C112.839 98.675 113.471 98.7925 114.016 99.0275C114.566 99.2625 114.974 99.6475 115.239 100.182C115.384 100.467 115.471 100.76 115.501 101.06C115.531 101.355 115.546 101.677 115.546 102.027V107H113.964V105.245L114.226 105.53C113.861 106.115 113.434 106.545 112.944 106.82C112.459 107.09 111.851 107.225 111.121 107.225ZM111.481 105.785C111.891 105.785 112.241 105.712 112.531 105.567C112.821 105.422 113.051 105.245 113.221 105.035C113.396 104.825 113.514 104.627 113.574 104.442C113.669 104.212 113.721 103.95 113.731 103.655C113.746 103.355 113.754 103.112 113.754 102.927L114.309 103.092C113.764 103.177 113.296 103.252 112.906 103.317C112.516 103.382 112.181 103.445 111.901 103.505C111.621 103.56 111.374 103.622 111.159 103.692C110.949 103.767 110.771 103.855 110.626 103.955C110.481 104.055 110.369 104.17 110.289 104.3C110.214 104.43 110.176 104.582 110.176 104.757C110.176 104.957 110.226 105.135 110.326 105.29C110.426 105.44 110.571 105.56 110.761 105.65C110.956 105.74 111.196 105.785 111.481 105.785ZM117.644 107L117.659 96.2H119.489V102.8L122.451 98.9H124.709L121.566 102.95L124.979 107H122.586L119.489 103.1V107H117.644ZM129.426 107.225C128.606 107.225 127.886 107.048 127.266 106.692C126.646 106.337 126.161 105.845 125.811 105.215C125.466 104.585 125.294 103.86 125.294 103.04C125.294 102.155 125.464 101.387 125.804 100.737C126.144 100.082 126.616 99.575 127.221 99.215C127.826 98.855 128.526 98.675 129.321 98.675C130.161 98.675 130.874 98.8725 131.459 99.2675C132.049 99.6575 132.486 100.21 132.771 100.925C133.056 101.64 133.164 102.482 133.094 103.452H131.301V102.792C131.296 101.912 131.141 101.27 130.836 100.865C130.531 100.46 130.051 100.257 129.396 100.257C128.656 100.257 128.106 100.487 127.746 100.947C127.386 101.402 127.206 102.07 127.206 102.95C127.206 103.77 127.386 104.405 127.746 104.855C128.106 105.305 128.631 105.53 129.321 105.53C129.766 105.53 130.149 105.432 130.469 105.237C130.794 105.037 131.044 104.75 131.219 104.375L133.004 104.915C132.694 105.645 132.214 106.212 131.564 106.617C130.919 107.022 130.206 107.225 129.426 107.225ZM126.636 103.452V102.087H132.209V103.452H126.636ZM134.927 107V98.9H136.525V100.872L136.33 100.617C136.43 100.347 136.562 100.102 136.727 99.8825C136.897 99.6575 137.1 99.4725 137.335 99.3275C137.535 99.1925 137.755 99.0875 137.995 99.0125C138.24 98.9325 138.49 98.885 138.745 98.87C139 98.85 139.247 98.86 139.487 98.9V100.587C139.247 100.517 138.97 100.495 138.655 100.52C138.345 100.545 138.065 100.632 137.815 100.782C137.565 100.917 137.36 101.09 137.2 101.3C137.045 101.51 136.93 101.75 136.855 102.02C136.78 102.285 136.742 102.572 136.742 102.882V107H134.927ZM141.894 110.6L143.454 106.317L143.484 107.578L139.952 98.9H141.834L144.339 105.32H143.859L146.297 98.9H148.104L143.589 110.6H141.894Z" fill="#4B5966"/>
<path d="M100.582 122.954C100.391 121.827 99.7365 121.264 98.6185 121.264C97.7692 121.264 97.1322 121.593 96.7075 122.252C96.2829 122.911 96.0879 123.99 96.1225 125.489C96.2959 124.969 96.6252 124.562 97.1105 124.267C97.6045 123.964 98.1679 123.812 98.8005 123.812C99.7105 123.812 100.43 124.094 100.959 124.657C101.496 125.212 101.765 125.979 101.765 126.958C101.765 127.53 101.652 128.05 101.427 128.518C101.21 128.977 100.872 129.346 100.413 129.623C99.9619 129.9 99.3985 130.039 98.7225 130.039C97.4312 130.039 96.5385 129.627 96.0445 128.804C95.5592 127.981 95.3165 126.815 95.3165 125.307C95.3165 122.1 96.4172 120.497 98.6185 120.497C99.4505 120.497 100.105 120.727 100.582 121.186C101.058 121.637 101.34 122.226 101.427 122.954H100.582ZM98.6315 124.592C98.2242 124.592 97.8385 124.674 97.4745 124.839C97.1105 125.004 96.8115 125.255 96.5775 125.593C96.3522 125.922 96.2395 126.33 96.2395 126.815C96.2395 127.517 96.4475 128.102 96.8635 128.57C97.2795 129.038 97.8862 129.272 98.6835 129.272C99.3509 129.272 99.8839 129.068 100.283 128.661C100.681 128.254 100.881 127.699 100.881 126.997C100.881 126.243 100.686 125.654 100.296 125.229C99.9055 124.804 99.3509 124.592 98.6315 124.592ZM109.597 121.459H104.839V124.787C105.056 124.484 105.372 124.237 105.788 124.046C106.204 123.847 106.655 123.747 107.14 123.747C107.851 123.747 108.432 123.894 108.882 124.189C109.333 124.475 109.658 124.852 109.857 125.32C110.057 125.779 110.156 126.273 110.156 126.802C110.156 127.409 110.039 127.959 109.805 128.453C109.58 128.938 109.229 129.324 108.752 129.61C108.284 129.896 107.699 130.039 106.997 130.039C106.105 130.039 105.381 129.809 104.826 129.35C104.272 128.882 103.934 128.254 103.812 127.465H104.709C104.822 128.037 105.082 128.479 105.489 128.791C105.897 129.103 106.399 129.259 106.997 129.259C107.751 129.259 108.319 129.038 108.7 128.596C109.09 128.145 109.285 127.552 109.285 126.815C109.285 126.096 109.09 125.537 108.7 125.138C108.31 124.731 107.751 124.527 107.023 124.527C106.521 124.527 106.079 124.644 105.697 124.878C105.316 125.112 105.034 125.428 104.852 125.827H103.994V120.666H109.597V121.459ZM117.057 120.913V130H116.147V120.913H117.057ZM120.621 123.669V128.076C120.621 128.509 120.703 128.808 120.868 128.973C121.032 129.138 121.323 129.22 121.739 129.22H122.571V130H121.596C120.954 130 120.478 129.853 120.166 129.558C119.854 129.255 119.698 128.761 119.698 128.076V123.669H118.71V122.902H119.698V121.121H120.621V122.902H122.571V123.669H120.621ZM130.814 126.087C130.814 126.399 130.805 126.637 130.788 126.802H124.899C124.925 127.339 125.055 127.799 125.289 128.18C125.523 128.561 125.83 128.852 126.212 129.051C126.593 129.242 127.009 129.337 127.46 129.337C128.049 129.337 128.543 129.194 128.942 128.908C129.349 128.622 129.618 128.236 129.748 127.751H130.71C130.536 128.444 130.164 129.012 129.592 129.454C129.028 129.887 128.318 130.104 127.46 130.104C126.792 130.104 126.194 129.957 125.666 129.662C125.137 129.359 124.721 128.934 124.418 128.388C124.123 127.833 123.976 127.188 123.976 126.451C123.976 125.714 124.123 125.069 124.418 124.514C124.712 123.959 125.124 123.535 125.653 123.24C126.181 122.945 126.784 122.798 127.46 122.798C128.136 122.798 128.725 122.945 129.228 123.24C129.739 123.535 130.129 123.933 130.398 124.436C130.675 124.93 130.814 125.48 130.814 126.087ZM129.891 126.061C129.899 125.532 129.791 125.082 129.566 124.709C129.349 124.336 129.05 124.055 128.669 123.864C128.287 123.673 127.871 123.578 127.421 123.578C126.745 123.578 126.168 123.795 125.692 124.228C125.215 124.661 124.951 125.272 124.899 126.061H129.891ZM141.249 122.772C142.081 122.772 142.757 123.036 143.277 123.565C143.805 124.085 144.07 124.843 144.07 125.84V130H143.173V125.944C143.173 125.173 142.986 124.583 142.614 124.176C142.241 123.769 141.734 123.565 141.093 123.565C140.425 123.565 139.892 123.786 139.494 124.228C139.095 124.67 138.896 125.311 138.896 126.152V130H137.999V125.944C137.999 125.173 137.812 124.583 137.44 124.176C137.067 123.769 136.556 123.565 135.906 123.565C135.238 123.565 134.705 123.786 134.307 124.228C133.908 124.67 133.709 125.311 133.709 126.152V130H132.799V122.902H133.709V124.124C133.934 123.682 134.255 123.348 134.671 123.123C135.087 122.889 135.55 122.772 136.062 122.772C136.677 122.772 137.214 122.919 137.674 123.214C138.142 123.509 138.48 123.942 138.688 124.514C138.878 123.951 139.203 123.522 139.663 123.227C140.131 122.924 140.659 122.772 141.249 122.772ZM148.855 130.104C148.04 130.104 147.373 129.918 146.853 129.545C146.341 129.164 146.055 128.648 145.995 127.998H146.931C146.974 128.397 147.16 128.722 147.49 128.973C147.828 129.216 148.278 129.337 148.842 129.337C149.336 129.337 149.721 129.22 149.999 128.986C150.285 128.752 150.428 128.462 150.428 128.115C150.428 127.872 150.35 127.673 150.194 127.517C150.038 127.361 149.838 127.24 149.596 127.153C149.362 127.058 149.041 126.958 148.634 126.854C148.105 126.715 147.676 126.577 147.347 126.438C147.017 126.299 146.736 126.096 146.502 125.827C146.276 125.55 146.164 125.181 146.164 124.722C146.164 124.375 146.268 124.055 146.476 123.76C146.684 123.465 146.978 123.231 147.36 123.058C147.741 122.885 148.174 122.798 148.66 122.798C149.422 122.798 150.038 122.993 150.506 123.383C150.974 123.764 151.225 124.293 151.26 124.969H150.35C150.324 124.553 150.159 124.219 149.856 123.968C149.561 123.708 149.154 123.578 148.634 123.578C148.174 123.578 147.802 123.686 147.516 123.903C147.23 124.12 147.087 124.388 147.087 124.709C147.087 124.986 147.169 125.216 147.334 125.398C147.507 125.571 147.719 125.71 147.971 125.814C148.222 125.909 148.56 126.018 148.985 126.139C149.496 126.278 149.903 126.412 150.207 126.542C150.51 126.672 150.77 126.863 150.987 127.114C151.203 127.365 151.316 127.699 151.325 128.115C151.325 128.496 151.221 128.839 151.013 129.142C150.805 129.437 150.514 129.671 150.142 129.844C149.769 130.017 149.34 130.104 148.855 130.104Z" fill="#777777"/>
</g>
<defs>
<filter id="filter0_d_5_30" x="0" y="5" width="246" height="170" filterUnits="userSpaceOnUse" color-interpolation-filters="sRGB">
<feFlood flood-opacity="0" result="BackgroundImageFix"/>
<feColorMatrix in="SourceAlpha" type="matrix" values="0 0 0 0 0 0 0 0 0 0 0 0 0 0 0 0 0 0 127 0" result="hardAlpha"/>
<feOffset dy="5"/>
<feGaussianBlur stdDeviation="7.5"/>
<feComposite in2="hardAlpha" operator="out"/>
<feColorMatrix type="matrix" values="0 0 0 0 0.345098 0 0 0 0 0.431373 0 0 0 0 0.490196 0 0 0 0.1 0"/>
<feBlend mode="normal" in2="BackgroundImageFix" result="effect1_dropShadow_5_30"/>
<feBlend mode="normal" in="SourceGraphic" in2="effect1_dropShadow_5_30" result="shape"/>
</filter>
<linearGradient id="paint0_linear_5_30" x1="123" y1="170" x2="123" y2="0" gradientUnits="userSpaceOnUse">
<stop stop-color="white"/>
<stop offset="0.5" stop-color="white"/>
<stop offset="1" stop-opacity="0"/>
</linearGradient>
<clipPath id="clip0_5_30">
<rect width="40.02" height="40" fill="white" transform="matrix(1 0 0 -1 102.98 80)"/>
</clipPath>
</defs>
</svg>
