<svg width="40" height="40" viewBox="0 0 40 40" fill="none" xmlns="http://www.w3.org/2000/svg">
<path d="M38.5333 27.2L29.8667 35.4667C28.1778 36.8889 26.3333 38 24.3333 38.8C22.3333 39.6 20.2222 40 18 40H0V38.2667H18C19.9556 38.3556 21.8667 38.0444 23.7333 37.3333C25.6 36.6222 27.2444 35.6 28.6667 34.2667L37.3333 26C37.7778 25.5556 38.0444 25.0222 38.1333 24.4C38.2222 23.7778 38.0667 23.1778 37.6667 22.6C37.2667 22.0222 36.6667 21.7111 35.8667 21.6667C35.0667 21.6222 34.4 21.8667 33.8667 22.4L27.2 28.6667C26.4 29.5556 25.3778 30 24.1333 30H14.9333V28.2667H24.1333C24.8444 28.2667 25.4444 28.0222 25.9333 27.5333C26.4222 27.0444 26.6667 26.4889 26.6667 25.8667V23.3333H14.6667C12.5333 23.3333 10.5111 23.7333 8.6 24.5333C6.68889 25.3333 4.97778 26.4889 3.46667 28L1.33333 30.1333L0.133333 28.9333L2.26667 26.8C3.95556 25.1111 5.86667 23.8222 8 22.9333C10.1333 22.0444 12.3556 21.6 14.6667 21.6H28.2667V25.3333L32.8 21.2C33.6889 20.3111 34.7778 19.9111 36.0667 20C37.3556 20.0889 38.3556 20.6667 39.0667 21.7333C39.6889 22.5333 39.9333 23.4667 39.8 24.5333C39.6667 25.6 39.2444 26.4889 38.5333 27.2ZM6.66667 0.799999V-3.8147e-06H7.46667C10.6667 -3.8147e-06 13.2222 0.533333 15.1333 1.6C17.0444 2.66666 18.4 4.31111 19.2 6.53333C19.9111 4.31111 21.2222 2.66666 23.1333 1.6C25.0444 0.533333 27.6 -3.8147e-06 30.8 -3.8147e-06H31.7333V0.799999C31.7333 5.06667 30.8 8.2 28.9333 10.2C27.0667 12.2 24.0889 13.2444 20 13.3333V18.2667H18.4V13.3333C14.3111 13.2444 11.3333 12.2 9.46667 10.2C7.6 8.2 6.66667 5.06667 6.66667 0.799999ZM20 11.6C23.4667 11.5111 25.9778 10.7111 27.5333 9.2C29.0889 7.68889 29.9111 5.2 30 1.73333C26.5333 1.82222 24.0222 2.62222 22.4667 4.13333C20.9111 5.64444 20.0889 8.13333 20 11.6ZM8.4 1.73333C8.48889 5.2 9.28889 7.68889 10.8 9.2C12.3111 10.7111 14.8 11.5111 18.2667 11.6C18.1778 8.13333 17.3778 5.64444 15.8667 4.13333C14.3556 2.62222 11.8667 1.82222 8.4 1.73333Z" fill="#5CAF90"/>
</svg>
