<svg width="37" height="40" viewBox="0 0 37 40" fill="none" xmlns="http://www.w3.org/2000/svg">
<path d="M35.4807 17.2C34.7696 16.6667 33.9696 16.5333 33.0807 16.8C32.014 17.2444 30.9474 17.7778 29.8807 18.4C29.614 15.0222 28.8585 11.8667 27.614 8.93333C26.4585 6.26667 25.0363 4.11111 23.3474 2.46666C21.6585 0.82222 19.9696 -3.8147e-06 18.2807 -3.8147e-06C16.5918 -3.8147e-06 14.9029 0.82222 13.214 2.46666C11.5251 4.11111 10.1029 6.26667 8.94737 8.93333C7.70292 11.8667 6.94737 15.0222 6.6807 18.4C5.61404 17.7778 4.54737 17.2444 3.4807 16.8C2.59181 16.5333 1.76959 16.6889 1.01404 17.2667C0.25848 17.8444 -0.0748538 18.6222 0.0140351 19.6C0.280702 24.0444 1.39181 27.8667 3.34737 31.0667C5.12515 34 7.39181 36.2667 10.1474 37.8667C12.7251 39.2889 15.4363 40 18.2807 40C21.1251 40 23.8363 39.2889 26.414 37.8667C29.1696 36.2667 31.4363 34 33.214 31.0667C35.1696 27.8667 36.2807 24.0444 36.5474 19.6C36.6363 18.6222 36.2807 17.8222 35.4807 17.2ZM1.61404 19.4667C1.61404 19.1111 1.72515 18.8444 1.94737 18.6667C2.16959 18.4889 2.36959 18.4 2.54737 18.4H2.81404C4.23626 18.9333 5.56959 19.6 6.81404 20.4C6.90292 20.5778 7.03626 20.7111 7.21404 20.8C10.5029 23.2 13.1696 26.6667 15.214 31.2C16.2807 33.6889 17.0363 36.0444 17.4807 38.2667C15.2585 38.0889 13.1251 37.4667 11.0807 36.4C8.59181 34.9778 6.54737 33.0222 4.94737 30.5333C3.0807 27.5111 1.96959 23.8222 1.61404 19.4667ZM12.414 23.3333H15.7474C16.014 23.3333 16.2363 23.2444 16.414 23.0667C16.5918 22.8889 16.6807 22.6889 16.6807 22.4667C16.6807 22.2444 16.5918 22.0444 16.414 21.8667C16.2363 21.6889 16.014 21.6 15.7474 21.6H10.814C10.014 20.8889 9.16959 20.1778 8.2807 19.4667C8.36959 18.5778 8.45848 17.6444 8.54737 16.6667H12.414C12.6807 16.6667 12.8807 16.5778 13.014 16.4C13.1474 16.2222 13.2363 16.0222 13.2807 15.8C13.3251 15.5778 13.2585 15.3778 13.0807 15.2C12.9029 15.0222 12.6807 14.9333 12.414 14.9333H8.81404C9.16959 13.2444 9.65848 11.6 10.2807 10H15.7474C16.014 10 16.214 9.91111 16.3474 9.73333C16.4807 9.55555 16.5696 9.35555 16.614 9.13333C16.6585 8.91111 16.5918 8.71111 16.414 8.53333C16.2363 8.35555 16.014 8.26666 15.7474 8.26666H11.0807C12.0585 6.31111 13.1918 4.71111 14.4807 3.46666C15.7696 2.22222 17.0363 1.6 18.2807 1.6C19.5251 1.6 20.7918 2.22222 22.0807 3.46666C23.3696 4.71111 24.5029 6.31111 25.4807 8.26666H20.814C20.5474 8.26666 20.3474 8.35555 20.214 8.53333C20.0807 8.71111 20.014 8.91111 20.014 9.13333C20.014 9.35555 20.0807 9.55555 20.214 9.73333C20.3474 9.91111 20.5474 10 20.814 10H26.2807C26.9029 11.6 27.3918 13.2889 27.7474 15.0667H24.1474C23.8807 14.9778 23.6585 15.0222 23.4807 15.2C23.3029 15.3778 23.2363 15.5778 23.2807 15.8C23.3251 16.0222 23.414 16.2222 23.5474 16.4C23.6807 16.5778 23.8807 16.6667 24.1474 16.6667H28.014C28.1029 17.6444 28.1918 18.5778 28.2807 19.4667C27.3918 20.1778 26.5474 20.8889 25.7474 21.6H20.814C20.5474 21.6 20.3474 21.6889 20.214 21.8667C20.0807 22.0444 20.014 22.2444 20.014 22.4667C20.014 22.6889 20.0807 22.8889 20.214 23.0667C20.3474 23.2444 20.5474 23.3333 20.814 23.3333H24.1474C21.5696 26.4444 19.614 30.2667 18.2807 34.8C16.9474 30.2667 14.9918 26.4444 12.414 23.3333ZM34.9474 19.4667C34.5918 23.8222 33.4807 27.5111 31.614 30.5333C30.014 33.0222 27.9696 34.9778 25.4807 36.4C23.4363 37.4667 21.3029 38.0889 19.0807 38.2667C19.5251 36.0444 20.2807 33.6889 21.3474 31.2C23.3918 26.6667 26.0585 23.2 29.3474 20.8C29.5251 20.7111 29.6585 20.5778 29.7474 20.4C30.9918 19.6 32.3251 18.9333 33.7474 18.4H34.014C34.1918 18.4 34.3918 18.4667 34.614 18.6C34.8363 18.7333 34.9474 19.0222 34.9474 19.4667ZM20.014 15.8667C20.014 16.0444 19.9251 16.2222 19.7474 16.4C19.5696 16.5778 19.3474 16.6667 19.0807 16.6667H17.4807C17.214 16.6667 17.014 16.5778 16.8807 16.4C16.7474 16.2222 16.6807 16.0222 16.6807 15.8C16.6807 15.5778 16.7474 15.3778 16.8807 15.2C17.014 15.0222 17.214 14.9333 17.4807 14.9333H19.0807C19.3474 14.9333 19.5696 15.0222 19.7474 15.2C19.9251 15.3778 20.014 15.6 20.014 15.8667Z" fill="#5CAF90"/>
</svg>
