<svg width="41" height="41" viewBox="0 0 41 41" fill="none" xmlns="http://www.w3.org/2000/svg">
<path d="M9.87688 40.9291C6.88062 40.9291 4.47453 40.0665 2.65861 38.3414C1.29668 36.9794 0.456816 35.2089 0.139031 33.0298C-0.178754 30.8507 0.0482353 28.4446 0.819999 25.8116C1.59176 23.1785 2.81751 20.5681 4.49723 17.9804C6.17695 15.3927 8.19716 12.9185 10.5578 10.5579C12.9185 8.19717 15.3927 6.17696 17.9804 4.49724C20.5681 2.81752 23.1785 1.59178 25.8115 0.82001C28.4446 0.0482469 30.8507 -0.178742 33.0298 0.139044C35.2089 0.456829 36.9794 1.29669 38.3414 2.65863C39.7033 4.02056 40.5432 5.79108 40.8609 7.97018C41.1787 10.1493 40.9517 12.5554 40.18 15.1884C39.4082 17.8215 38.1825 20.4319 36.5027 23.0196C34.823 25.6073 32.8028 28.0814 30.4421 30.4421C28.0814 32.8028 25.6072 34.823 23.0196 36.5028C20.4319 38.1825 17.8215 39.3855 15.1884 40.1119C13.2817 40.6567 11.5112 40.9291 9.87688 40.9291ZM31.1231 1.70527C29.6704 1.70527 28.036 1.97766 26.2201 2.52243C23.7686 3.2488 21.2945 4.40644 18.7976 5.99537C16.3007 7.5843 13.94 9.49101 11.7155 11.7155C9.491 13.94 7.58429 16.3007 5.99536 18.7976C4.40643 21.2945 3.24879 23.7459 2.52242 26.152C1.79605 28.5581 1.56906 30.6918 1.84145 32.5531C2.11384 34.4145 2.81751 35.9126 3.95245 37.0475C5.0874 38.1825 6.58553 38.8861 8.44685 39.1585C10.3082 39.4309 12.4419 39.2039 14.8479 38.4776C17.254 37.7512 19.7055 36.5936 22.2024 35.0046C24.6993 33.4157 27.06 31.509 29.2845 29.2845C31.509 27.06 33.4157 24.6993 35.0046 22.2024C36.5935 19.7055 37.7512 17.2541 38.4776 14.848C39.2039 12.4419 39.4309 10.3082 39.1585 8.44686C38.8861 6.58555 38.2052 5.06471 37.1156 3.88437C35.6629 2.43163 33.6654 1.70527 31.1231 1.70527ZM25.6753 24.722C25.6753 21.9073 24.8128 19.6374 23.0877 17.9123C21.3625 16.1872 19.0927 15.3246 16.278 15.3246C16.0056 15.3246 15.8013 15.4154 15.6651 15.597C15.5289 15.7786 15.4381 15.9829 15.3927 16.2099C15.3473 16.4369 15.4154 16.6412 15.597 16.8228C15.7786 17.0044 16.0056 17.0952 16.278 17.0952C18.5479 17.0952 20.3865 17.7988 21.7938 19.2062C23.2012 20.6135 23.9048 22.4521 23.9048 24.722C23.9048 24.9944 23.9956 25.1987 24.1772 25.3349C24.3588 25.4711 24.5631 25.5619 24.7901 25.6073C25.0171 25.6527 25.2214 25.5846 25.403 25.403C25.5846 25.2214 25.6753 24.9944 25.6753 24.722ZM32.485 17.9123C32.485 15.0976 31.6225 12.8278 29.8974 11.1026C28.1722 9.37751 25.9023 8.51495 23.0877 8.51495C22.8153 8.51495 22.611 8.60575 22.4748 8.78734C22.3386 8.96893 22.2705 9.17322 22.2705 9.40021C22.2705 9.6272 22.3386 9.83149 22.4748 10.0131C22.611 10.1947 22.8153 10.2855 23.0877 10.2855C25.3576 10.2855 27.1962 10.9891 28.6035 12.3965C30.0108 13.8038 30.7145 15.6424 30.7145 17.9123C30.7145 18.1847 30.8053 18.389 30.9869 18.5252C31.1685 18.6614 31.3728 18.7295 31.5998 18.7295C31.8268 18.7295 32.0311 18.6614 32.2126 18.5252C32.3942 18.389 32.485 18.1847 32.485 17.9123ZM18.8657 31.5317C18.8657 28.717 18.0031 26.4471 16.278 24.722C14.5529 22.9969 12.283 22.1343 9.4683 22.1343C9.19591 22.2251 8.99162 22.3386 8.85543 22.4748C8.71923 22.611 8.62844 22.7926 8.58304 23.0196C8.53764 23.2466 8.60574 23.4509 8.78733 23.6325C8.96892 23.814 9.19591 23.9048 9.4683 23.9048C11.7382 23.9048 13.5768 24.6085 14.9841 26.0158C16.3915 27.4232 17.0951 29.2618 17.0951 31.5317C17.0951 31.8041 17.1859 32.0084 17.3675 32.1446C17.5491 32.2808 17.7534 32.3715 17.9804 32.4169C18.2074 32.4623 18.389 32.3942 18.5252 32.2127C18.6614 32.0311 18.7749 31.8041 18.8657 31.5317Z" fill="#5CAF90"/>
</svg>
