<svg width="41" height="40" viewBox="0 0 41 40" fill="none" xmlns="http://www.w3.org/2000/svg">
<path d="M36.96 4.66666C36.3378 3.24444 35.4044 2.11111 34.16 1.26667C32.9156 0.422218 31.5378 -3.8147e-06 30.0267 -3.8147e-06H4.16C3.89333 -3.8147e-06 3.67111 0.111111 3.49333 0.333332C3.31556 0.555553 3.27111 0.844444 3.36 1.2L6.56 9.06667C5.49333 11.1111 4.42667 13.5556 3.36 16.4C1.67111 21.2889 0.56 26.4 0.0266667 31.7333C-0.0622222 32.8 0.0711111 33.8444 0.426667 34.8667C0.782222 35.8889 1.31556 36.7778 2.02667 37.5333C2.73778 38.2889 3.56 38.8889 4.49333 39.3333C5.42667 39.7778 6.42667 40 7.49333 40H27.4933C28.56 40 29.5822 39.7778 30.56 39.3333C31.5378 38.8889 32.3822 38.2889 33.0933 37.5333C33.8044 36.7778 34.3156 35.8889 34.6267 34.8667C34.9378 33.8444 35.0489 32.8 34.96 31.7333C34.4267 26.3111 33.2711 21.0667 31.4933 16C30.5156 13.2444 29.4933 10.8889 28.4267 8.93333V1.6H30.0267C31.1822 1.6 32.2489 1.95555 33.2267 2.66666C34.2044 3.37778 34.9156 4.26667 35.36 5.33333C37.4044 10.4 38.4267 15.5556 38.4267 20.8C38.4267 21.0667 38.4933 21.2889 38.6267 21.4667C38.76 21.6444 38.9378 21.7111 39.16 21.6667C39.3822 21.6222 39.5822 21.5333 39.76 21.4C39.9378 21.2667 40.0267 21.0667 40.0267 20.8C40.0267 15.2889 39.0044 9.95555 36.96 4.8V4.66666ZM31.8933 36.4C30.7378 37.6444 29.2711 38.2667 27.4933 38.2667H7.49333C5.80444 38.2667 4.38222 37.6444 3.22667 36.4C2.69333 35.7778 2.29333 35.0889 2.02667 34.3333C1.76 33.5778 1.67111 32.7556 1.76 31.8667C2.02667 28.4 2.60444 24.9778 3.49333 21.6H25.8933C26.0711 21.6 26.2489 21.5333 26.4267 21.4C26.6044 21.2667 26.6933 21.0889 26.6933 20.8667C26.6933 20.6444 26.6044 20.4444 26.4267 20.2667C26.2489 20.0889 26.0711 20 25.8933 20H4.02667C5.18222 16.0889 6.51556 12.7556 8.02667 10H27.0933C28.16 12.0444 29.1822 14.4444 30.16 17.2C31.76 21.9111 32.8267 26.8 33.36 31.8667C33.4489 32.7556 33.36 33.5778 33.0933 34.3333C32.8267 35.0889 32.4267 35.7778 31.8933 36.4ZM26.6933 8.26666H8.02667L5.36 1.6H26.6933V8.26666Z" fill="#5CAF90"/>
</svg>
