<svg width="9" height="5" viewBox="0 0 9 5" fill="none" xmlns="http://www.w3.org/2000/svg">
<path d="M8.79593 0.204504C8.65956 0.0681325 8.50614 -5.32987e-05 8.33568 -5.32987e-05C8.16521 -5.32987e-05 8.0118 0.0681325 7.87542 0.204504L4.96049 3.11943C4.82412 3.2558 4.67071 3.32399 4.50024 3.32399C4.32978 3.32399 4.17636 3.2558 4.03999 3.11943L1.12506 0.204504C0.98869 0.0681325 0.835272 -5.32987e-05 0.664809 -5.32987e-05C0.494345 -5.32987e-05 0.340927 0.0596094 0.204556 0.178934C0.0681855 0.298258 0 0.451676 0 0.639186C0 0.826696 0.0681855 0.97159 0.204556 1.07387L3.17063 4.03994C3.51155 4.41496 3.95476 4.60247 4.50024 4.60247C5.04573 4.60247 5.50598 4.41496 5.881 4.03994L8.79593 1.07387C8.9323 0.97159 9.00048 0.826696 9.00048 0.639186C9.00048 0.451676 8.9323 0.306782 8.79593 0.204504Z" fill="#777777"/>
</svg>
