<svg width="24" height="24" viewBox="0 0 24 24" fill="none" xmlns="http://www.w3.org/2000/svg">
<path d="M21.04 6H18C18 4.93333 17.7333 3.93333 17.2 3C16.6667 2.06667 15.9333 1.33333 15 0.800001C14.0667 0.266666 13.0667 0 12 0C10.9333 0 9.93333 0.266666 9 0.800001C8.06667 1.33333 7.33333 2.06667 6.8 3C6.26667 3.93333 6 4.93333 6 6H3.04C2.18667 6 1.46667 6.29333 0.88 6.88C0.293333 7.46667 0 8.18667 0 9.04V18.96C0 19.8667 0.226667 20.7067 0.68 21.48C1.13333 22.2533 1.74667 22.8667 2.52 23.32C3.29333 23.7733 4.10667 24 4.96 24H19.04C19.8933 24 20.7067 23.7733 21.48 23.32C22.2533 22.8667 22.8667 22.2533 23.32 21.48C23.7733 20.7067 24 19.8933 24 19.04V8.96C24 8.16 23.7067 7.46667 23.12 6.88C22.5333 6.29333 21.8133 6 20.96 6H21.04ZM12 2C13.12 2 14.0667 2.38667 14.84 3.16C15.6133 3.93333 16 4.88 16 6H8C8 4.88 8.38667 3.93333 9.16 3.16C9.93333 2.38667 10.88 2 12 2ZM22 18.96C22 19.8133 21.7067 20.5333 21.12 21.12C20.5333 21.7067 19.8133 22 18.96 22H5.04C4.18667 22 3.46667 21.7067 2.88 21.12C2.29333 20.5333 2 19.84 2 19.04V8.96C2 8.69333 2.09333 8.46667 2.28 8.28C2.46667 8.09333 2.69333 8 2.96 8H6V10C6 10.2667 6.09333 10.5067 6.28 10.72C6.46667 10.9333 6.70667 11.0267 7 11C7.29333 10.9733 7.53333 10.8667 7.72 10.68C7.90667 10.4933 8 10.2667 8 10V8H16V10C16 10.2667 16.0933 10.5067 16.28 10.72C16.4667 10.9333 16.7067 11.0267 17 11C17.2933 10.9733 17.5333 10.8667 17.72 10.68C17.9067 10.4933 18 10.2667 18 10V8H21.04C21.3067 8 21.5333 8.09333 21.72 8.28C21.9067 8.46667 22 8.69333 22 8.96V18.96Z" fill="#4B5966"/>
</svg>
