<svg width="15" height="15" viewBox="0 0 15 15" fill="none" xmlns="http://www.w3.org/2000/svg">
<path d="M12.75 2.2C12.05 1.5 11.2417 0.958333 10.325 0.575C9.40833 0.191667 8.46667 0 7.5 0C6.13333 0 4.88333 0.333333 3.75 1C2.61667 1.66667 1.71667 2.56667 1.05 3.7C0.383333 4.83333 0.05 6.075 0.05 7.425C0.05 8.775 0.383333 10.0167 1.05 11.15L0 15L3.95 13.95C5.05 14.55 6.23333 14.85 7.5 14.85C8.83333 14.85 10.0667 14.5167 11.2 13.85C12.3333 13.1833 13.2333 12.2833 13.9 11.15C14.5667 10.0167 14.9 8.78333 14.9 7.45C14.9 6.45 14.7167 5.5 14.35 4.6C13.9833 3.7 13.45 2.9 12.75 2.2ZM7.5 13.6C6.36667 13.6 5.31667 13.3167 4.35 12.75L4.1 12.6L1.75 13.25L2.4 10.95L2.25 10.7C1.61667 9.7 1.3 8.625 1.3 7.475C1.3 6.325 1.575 5.275 2.125 4.325C2.675 3.375 3.425 2.625 4.375 2.075C5.325 1.525 6.36667 1.25 7.5 1.25C8.3 1.25 9.08333 1.40833 9.85 1.725C10.6167 2.04167 11.2917 2.49167 11.875 3.075C12.4583 3.65833 12.9 4.325 13.2 5.075C13.5 5.825 13.65 6.61667 13.65 7.45C13.65 8.55 13.375 9.575 12.825 10.525C12.275 11.475 11.525 12.225 10.575 12.775C9.625 13.325 8.6 13.6 7.5 13.6ZM10.85 9C10.1833 8.63333 9.78333 8.43333 9.65 8.4C9.51667 8.36667 9.41667 8.35 9.35 8.35C9.28333 8.35 9.23333 8.4 9.2 8.5C9.06667 8.63333 8.86667 8.86667 8.6 9.2C8.5 9.33333 8.36667 9.35 8.2 9.25L8.05 9.2C7.55 8.96667 7.1 8.675 6.7 8.325C6.3 7.975 5.95 7.55 5.65 7.05C5.61667 6.95 5.60833 6.875 5.625 6.825C5.64167 6.775 5.68333 6.71667 5.75 6.65L6 6.35C6.06667 6.28333 6.13333 6.2 6.2 6.1V6.05C6.26667 5.95 6.26667 5.83333 6.2 5.7L5.6 4.3C5.56667 4.16667 5.51667 4.08333 5.45 4.05C5.38333 4.01667 5.31667 4 5.25 4H4.85C4.65 4 4.48333 4.08333 4.35 4.25H4.3C4.13333 4.45 4.01667 4.63333 3.95 4.8C3.78333 5.1 3.7 5.43333 3.7 5.8C3.7 6.16667 3.81667 6.58333 4.05 7.05C4.15 7.28333 4.28333 7.5 4.45 7.7L4.5 7.75C4.8 8.18333 5.13333 8.58333 5.5 8.95C6.2 9.68333 6.91667 10.2 7.65 10.5C7.95 10.6333 8.28333 10.7583 8.65 10.875C9.01667 10.9917 9.41667 11.0167 9.85 10.95C10.05 10.95 10.2917 10.8583 10.575 10.675C10.8583 10.4917 11.0333 10.3 11.1 10.1C11.1667 9.9 11.2083 9.71667 11.225 9.55C11.2417 9.38333 11.2417 9.275 11.225 9.225C11.2083 9.175 11.1167 9.11667 10.95 9.05L10.85 9Z" fill="#777777"/>
</svg>
