<svg width="25" height="22" viewBox="0 0 25 22" fill="none" xmlns="http://www.w3.org/2000/svg">
<path d="M18.2469 0.000123113C17.0253 0.000123113 15.901 0.305504 14.8738 0.916267C13.8466 1.52703 13.0554 2.35989 12.5001 3.41484C11.9449 2.35989 11.1537 1.52703 10.1265 0.916267C9.09928 0.305504 7.96104 0.0140031 6.71176 0.041765C5.46247 0.069527 4.31035 0.416552 3.25539 1.08284C2.20044 1.74913 1.38146 2.63751 0.798458 3.74799C0.215457 4.85847 -0.0482817 6.05223 0.00724225 7.32928C0.00724225 9.49471 1.00667 11.8822 3.00553 14.4919C4.5602 16.4907 6.61459 18.5729 9.16869 20.7383C10.1126 21.5712 11.2231 21.9876 12.5001 21.9876C13.7772 21.9876 14.8877 21.5712 15.8316 20.7383C18.3857 18.5729 20.44 16.4907 21.9947 14.4919C23.9936 11.8822 24.993 9.49471 24.993 7.32928C25.0485 6.05223 24.7848 4.85847 24.2018 3.74799C23.6188 2.63751 22.7998 1.74913 21.7449 1.08284C20.6899 0.416552 19.5239 0.055647 18.2469 0.000123113ZM14.499 19.1559C13.9437 19.6556 13.2775 19.9054 12.5001 19.9054C11.7228 19.9054 11.0565 19.6556 10.5013 19.1559C7.83612 16.9349 5.76785 14.7834 4.29647 12.7012C2.82508 10.6191 2.08939 8.82843 2.08939 7.32928C2.03387 6.4409 2.21432 5.60804 2.63075 4.8307C3.04718 4.05337 3.6163 3.41484 4.33811 2.91513C5.05992 2.41541 5.86502 2.16556 6.7534 2.16556C7.64178 2.16556 8.46076 2.41541 9.21033 2.91513C9.95991 3.41484 10.529 4.05337 10.9177 4.8307C11.3064 5.60804 11.5007 6.4409 11.5007 7.32928C11.5007 7.6069 11.5979 7.85676 11.7922 8.07885C11.9865 8.30095 12.2225 8.412 12.5001 8.412C12.7777 8.412 13.0137 8.30095 13.2081 8.07885C13.4024 7.85676 13.5273 7.6069 13.5828 7.32928C13.5273 6.4409 13.6939 5.60804 14.0826 4.8307C14.4712 4.05337 15.0403 3.41484 15.7899 2.91513C16.5395 2.41541 17.3585 2.16556 18.2469 2.16556C19.1352 2.16556 19.9403 2.41541 20.6621 2.91513C21.384 3.41484 21.9531 4.05337 22.3695 4.8307C22.7859 5.60804 22.9664 6.4409 22.9109 7.32928C22.9109 8.82843 22.1752 10.6191 20.7038 12.7012C19.2324 14.7834 17.1641 16.9349 14.499 19.1559Z" fill="#4B5966"/>
</svg>
