<svg width="18" height="18" viewBox="0 0 18 18" fill="none" xmlns="http://www.w3.org/2000/svg">
<path d="M5.28 0H3C2.16 0 1.45 0.290001 0.87 0.870001C0.29 1.45 0 2.16 0 3V5.22C0 6.06 0.29 6.77 0.87 7.35C1.45 7.93 2.16 8.22 3 8.22H5.28C6.08 8.22 6.78 7.93 7.38 7.35C7.98 6.77 8.26 6.08 8.22 5.28V3C8.26 2.16 7.98 1.45 7.38 0.870001C6.78 0.290001 6.08 0 5.28 0ZM6.78 5.22C6.78 5.66 6.63 6.02 6.33 6.3C6.03 6.58 5.66 6.72 5.22 6.72H3C2.6 6.72 2.25 6.58 1.95 6.3C1.65 6.02 1.5 5.66 1.5 5.22V3C1.5 2.6 1.65 2.25 1.95 1.95C2.25 1.65 2.6 1.5 3 1.5H5.28C5.68 1.5 6.03 1.65 6.33 1.95C6.63 2.25 6.78 2.6 6.78 3V5.22ZM15 0H12.78C11.94 0 11.23 0.290001 10.65 0.870001C10.07 1.45 9.78 2.16 9.78 3V5.22C9.78 6.06 10.07 6.77 10.65 7.35C11.23 7.93 11.94 8.22 12.78 8.22H15C15.84 8.22 16.55 7.93 17.13 7.35C17.71 6.77 18 6.08 18 5.28V3C18 2.16 17.71 1.45 17.13 0.870001C16.55 0.290001 15.84 0 15 0ZM16.5 5.22C16.5 5.66 16.35 6.03 16.05 6.33C15.75 6.63 15.4 6.76 15 6.72H12.78C12.34 6.72 11.98 6.58 11.7 6.3C11.42 6.02 11.28 5.66 11.28 5.22V3C11.28 2.6 11.42 2.25 11.7 1.95C11.98 1.65 12.34 1.5 12.78 1.5H15C15.4 1.5 15.75 1.65 16.05 1.95C16.35 2.25 16.5 2.6 16.5 3V5.22ZM5.28 9.72H3C2.16 9.76 1.45 10.07 0.87 10.65C0.29 11.23 0 11.92 0 12.72V15C0 15.84 0.29 16.55 0.87 17.13C1.45 17.71 2.16 18 3 18H5.28C6.08 18 6.77 17.71 7.35 17.13C7.93 16.55 8.22 15.84 8.22 15V12.72C8.26 11.92 7.98 11.22 7.38 10.62C6.78 10.02 6.08 9.74 5.28 9.78V9.72ZM6.78 15C6.78 15.4 6.63 15.75 6.33 16.05C6.03 16.35 5.66 16.5 5.22 16.5H3C2.6 16.5 2.25 16.35 1.95 16.05C1.65 15.75 1.5 15.4 1.5 15V12.72C1.5 12.32 1.65 11.97 1.95 11.67C2.25 11.37 2.6 11.22 3 11.22H5.28C5.68 11.22 6.03 11.37 6.33 11.67C6.63 11.97 6.78 12.32 6.78 12.72V15ZM15 9.72H12.78C11.94 9.72 11.23 10.02 10.65 10.62C10.07 11.22 9.78 11.92 9.78 12.72V15C9.78 15.84 10.07 16.55 10.65 17.13C11.23 17.71 11.94 18 12.78 18H15C15.84 18 16.55 17.71 17.13 17.13C17.71 16.55 18 15.84 18 15V12.72C18 11.92 17.71 11.22 17.13 10.62C16.55 10.02 15.84 9.74 15 9.78V9.72ZM16.5 15C16.5 15.4 16.35 15.75 16.05 16.05C15.75 16.35 15.4 16.5 15 16.5H12.78C12.34 16.5 11.98 16.35 11.7 16.05C11.42 15.75 11.28 15.4 11.28 15V12.72C11.28 12.32 11.42 11.97 11.7 11.67C11.98 11.37 12.34 11.22 12.78 11.22H15C15.4 11.22 15.75 11.37 16.05 11.67C16.35 11.97 16.5 12.32 16.5 12.72V15Z" fill="white"/>
</svg>
