<svg width="15" height="15" viewBox="0 0 15 15" fill="none" xmlns="http://www.w3.org/2000/svg">
<path d="M8.13689 0.601067C8.13689 0.434095 8.19533 0.29217 8.31221 0.17529C8.42909 0.0584103 8.57102 -2.96179e-05 8.73799 -2.96179e-05C9.87339 -2.96179e-05 10.917 0.283822 11.8687 0.851523C12.8204 1.41922 13.5801 2.17894 14.1478 3.13068C14.7155 4.08241 14.9994 5.12598 14.9994 6.26138C14.9994 6.42836 14.941 6.57863 14.8241 6.71221C14.7072 6.84578 14.5569 6.90422 14.3733 6.88753C14.1896 6.87083 14.0393 6.80404 13.9224 6.68716C13.8056 6.57028 13.7471 6.42836 13.7471 6.26138C13.7471 5.35974 13.5217 4.52489 13.0709 3.75682C12.6201 2.98875 12.0106 2.37931 11.2426 1.92849C10.4745 1.47766 9.63963 1.25225 8.73799 1.25225C8.57102 1.25225 8.42909 1.19381 8.31221 1.07693C8.19533 0.960055 8.13689 0.818128 8.13689 0.651158V0.601067ZM8.73799 3.75682C9.43927 3.75682 10.032 3.99893 10.5162 4.48314C11.0004 4.96736 11.2426 5.56011 11.2426 6.26138C11.2426 6.42836 11.301 6.57863 11.4179 6.71221C11.5348 6.84578 11.685 6.90422 11.8687 6.88753C12.0524 6.87083 12.2026 6.80404 12.3195 6.68716C12.4364 6.57028 12.4948 6.42836 12.4948 6.26138C12.4948 5.5935 12.3279 4.96736 11.9939 4.38296C11.66 3.79856 11.2008 3.33939 10.6164 3.00545C10.032 2.67151 9.40587 2.50454 8.73799 2.50454C8.57102 2.50454 8.42909 2.56298 8.31221 2.67986C8.19533 2.79674 8.13689 2.94701 8.13689 3.13068C8.13689 3.31435 8.19533 3.46462 8.31221 3.5815C8.42909 3.69838 8.57102 3.75682 8.73799 3.75682ZM14.4484 10.4691C14.8157 10.8698 14.9994 11.3373 14.9994 11.8716C14.9994 12.4059 14.8157 12.8567 14.4484 13.2241L13.8473 13.8753C12.8789 14.8103 11.6266 15.1609 10.0905 14.9272C8.72129 14.7268 7.28534 14.0923 5.7826 13.0237C4.31325 11.9885 3.06097 10.7362 2.02575 9.26686C0.923743 7.76412 0.272556 6.32817 0.0721904 4.95901C-0.161569 3.42288 0.172373 2.1539 1.07402 1.15207L1.82539 0.550975C2.19272 0.183639 2.64354 -2.96179e-05 3.17785 -2.96179e-05C3.71216 -2.96179e-05 4.16298 0.183639 4.53032 0.550975L5.68242 2.10381C6.04975 2.47114 6.23342 2.91362 6.23342 3.43123C6.23342 3.94884 6.04975 4.39131 5.68242 4.75865L4.98114 5.71038C5.38187 6.67881 5.95792 7.53871 6.70929 8.29008C7.46066 9.04145 8.32056 9.6175 9.28899 10.0182L10.2407 9.31695C10.6081 8.94962 11.0505 8.76595 11.5681 8.76595C12.0858 8.76595 12.5282 8.94962 12.8956 9.31695L14.4484 10.4691ZM13.5468 11.3707C13.0458 11.0034 12.5449 10.6193 12.044 10.2186C11.9104 10.085 11.7518 10.0182 11.5681 10.0182C11.3845 10.0182 11.2259 10.085 11.0923 10.2186L9.78991 11.2204C9.62293 11.3874 9.42257 11.4208 9.18881 11.3206C7.91983 10.8531 6.80112 10.1351 5.83269 9.16668C4.86426 8.19825 4.14628 7.07954 3.67876 5.81056C3.57858 5.5768 3.61198 5.37644 3.77895 5.20947L4.78077 3.90709C4.91435 3.77352 4.98114 3.61489 4.98114 3.43123C4.98114 3.24756 4.91435 3.08894 4.78077 2.95536L3.62867 1.45262C3.4951 1.31904 3.33647 1.25225 3.15281 1.25225C2.96914 1.25225 2.81052 1.31904 2.67694 1.45262L1.92557 2.10381C1.25768 2.90527 1.07402 3.94049 1.37456 5.20947C1.64172 6.34487 2.25951 7.53036 3.22794 8.76595C4.12959 9.96814 5.20655 11.0201 6.45883 11.9217C7.71112 12.8233 8.90496 13.391 10.0404 13.6248C11.2759 13.892 12.2444 13.6916 12.9457 13.0237L13.4967 12.3725C13.6636 12.2389 13.7471 12.0803 13.7471 11.8967C13.7471 11.713 13.6803 11.5377 13.5468 11.3707Z" fill="#777777"/>
</svg>
