<svg width="17" height="17" viewBox="0 0 17 17" fill="none" xmlns="http://www.w3.org/2000/svg">
<path d="M16.7735 15.8106L12.5824 11.5629C13.3753 10.619 13.8756 9.54287 14.0833 8.33463C14.291 7.12638 14.1966 5.94646 13.8001 4.79485C13.4036 3.64324 12.7429 2.65211 11.8178 1.82144C10.8928 0.990772 9.84499 0.443287 8.67451 0.178983C7.50402 -0.0853212 6.3241 -0.057003 5.13473 0.263938C3.94537 0.584878 2.91647 1.17956 2.04805 2.04799C1.17962 2.91641 0.584938 3.9453 0.263999 5.13467C-0.0569409 6.32403 -0.0852591 7.50396 0.179044 8.67445C0.443347 9.84493 0.990833 10.8927 1.8215 11.8178C2.65217 12.7428 3.64331 13.4036 4.79491 13.8C5.94652 14.1965 7.12644 14.2909 8.33469 14.0832C9.54293 13.8756 10.619 13.3753 11.563 12.5824L15.8107 16.7735C15.924 16.9245 16.0844 17 16.2921 17C16.4998 17 16.6697 16.9339 16.8018 16.8018C16.934 16.6696 17.0001 16.4997 17.0001 16.292C17.0001 16.0844 16.9245 15.9239 16.7735 15.8106ZM7.08869 12.7523C6.06923 12.7523 5.12529 12.4974 4.25687 11.9877C3.38844 11.4779 2.69936 10.7889 2.18964 9.92045C1.67991 9.05202 1.42505 8.10808 1.42505 7.08863C1.42505 6.06917 1.67991 5.12523 2.18964 4.25681C2.69936 3.38838 3.38844 2.6993 4.25687 2.18958C5.12529 1.67985 6.06923 1.42498 7.08869 1.42498C8.10814 1.42498 9.05208 1.67985 9.92051 2.18958C10.7889 2.6993 11.478 3.38838 11.9877 4.25681C12.4975 5.12523 12.7523 6.06917 12.7523 7.08863C12.7523 8.10808 12.4975 9.05202 11.9877 9.92045C11.478 10.7889 10.7889 11.4779 9.92051 11.9877C9.05208 12.4974 8.10814 12.7523 7.08869 12.7523Z" fill="#4B5966"/>
</svg>
