<svg width="19" height="24" viewBox="0 0 19 24" fill="none" xmlns="http://www.w3.org/2000/svg">
<path d="M9.04 12C10.1067 12 11.1067 11.7333 12.04 11.2C12.9733 10.6667 13.7067 9.93333 14.24 9C14.7733 8.06667 15.04 7.06667 15.04 6C15.04 4.93333 14.7733 3.93333 14.24 3C13.7067 2.06667 12.9733 1.33333 12.04 0.800001C11.1067 0.266666 10.1067 0 9.04 0C7.97333 0 6.97333 0.266666 6.04 0.800001C5.10667 1.33333 4.37333 2.06667 3.84 3C3.30667 3.93333 3.04 4.93333 3.04 6C3.04 7.06667 3.30667 8.06667 3.84 9C4.37333 9.93333 5.10667 10.6667 6.04 11.2C6.97333 11.7333 7.97333 12 9.04 12ZM9.04 2C10.16 2 11.1067 2.38667 11.88 3.16C12.6533 3.93333 13.04 4.88 13.04 6C13.04 7.12 12.6533 8.06667 11.88 8.84C11.1067 9.61333 10.16 10 9.04 10C7.92 10 6.97333 9.61333 6.2 8.84C5.42667 8.06667 5.04 7.12 5.04 6C5.04 4.88 5.42667 3.93333 6.2 3.16C6.97333 2.38667 7.92 2 9.04 2ZM9.04 14C7.38667 14 5.88 14.4 4.52 15.2C3.16 16 2.08 17.0933 1.28 18.48C0.48 19.8667 0.0533333 21.3867 0 23.04C0.0533333 23.3067 0.173333 23.5333 0.36 23.72C0.546667 23.9067 0.773333 24 1.04 24C1.30667 24 1.53333 23.9067 1.72 23.72C1.90667 23.5333 2 23.3067 2 23.04C2.05333 21.76 2.38667 20.5867 3 19.52C3.61333 18.4533 4.45333 17.6 5.52 16.96C6.58667 16.32 7.76 16 9.04 16C10.32 16 11.4933 16.32 12.56 16.96C13.6267 17.6 14.48 18.4533 15.12 19.52C15.76 20.5867 16.08 21.76 16.08 23.04C16.08 23.3067 16.1733 23.5333 16.36 23.72C16.5467 23.9067 16.7733 24 17.04 24C17.3067 24 17.5467 23.9067 17.76 23.72C17.9733 23.5333 18.08 23.3067 18.08 23.04C18.0267 21.3867 17.6 19.8667 16.8 18.48C16 17.0933 14.92 16 13.56 15.2C12.2 14.4 10.6933 14 9.04 14Z" fill="#4B5966"/>
</svg>
